<mxfile host="app.diagrams.net" agent="Mozilla/5.0 (Windows NT 10.0; Win64; x64) AppleWebKit/537.36 (KHTML, like Gecko) Chrome/137.0.0.0 Safari/537.36" version="27.1.4">
  <diagram id="usjPvX4BqCcncyKizexJ" name="Der">
    <mxGraphModel grid="1" page="1" gridSize="10" guides="1" tooltips="1" connect="1" arrows="1" fold="1" pageScale="1" pageWidth="1169" pageHeight="827" background="#FFFFFF" math="0" shadow="0">
      <root>
        <mxCell id="0" />
        <mxCell id="1" parent="0" />
        <mxCell id="ldAZ7kthjkq9QqOqfzTh-1" value="unidade_saude" style="shape=table;startSize=30;container=1;collapsible=1;childLayout=tableLayout;fixedRows=1;rowLines=0;fontStyle=1;align=center;resizeLast=1;fontSize=15;fontFamily=Verdana;" vertex="1" parent="1">
          <mxGeometry x="760" y="-1150" width="240" height="240" as="geometry" />
        </mxCell>
        <mxCell id="ldAZ7kthjkq9QqOqfzTh-2" value="" style="shape=partialRectangle;collapsible=0;dropTarget=0;pointerEvents=0;fillColor=none;points=[[0,0.5],[1,0.5]];portConstraint=eastwest;top=0;left=0;right=0;bottom=1;fontSize=15;fontFamily=Verdana;" vertex="1" parent="ldAZ7kthjkq9QqOqfzTh-1">
          <mxGeometry y="30" width="240" height="30" as="geometry" />
        </mxCell>
        <mxCell id="ldAZ7kthjkq9QqOqfzTh-3" value="PK" style="shape=partialRectangle;overflow=hidden;connectable=0;fillColor=none;top=0;left=0;bottom=0;right=0;fontStyle=1;fontSize=15;fontFamily=Verdana;" vertex="1" parent="ldAZ7kthjkq9QqOqfzTh-2">
          <mxGeometry width="30" height="30" as="geometry">
            <mxRectangle width="30" height="30" as="alternateBounds" />
          </mxGeometry>
        </mxCell>
        <mxCell id="ldAZ7kthjkq9QqOqfzTh-4" value="id BIGINT" style="shape=partialRectangle;overflow=hidden;connectable=0;fillColor=none;top=0;left=0;bottom=0;right=0;align=left;spacingLeft=6;fontStyle=5;fontSize=15;fontFamily=Verdana;" vertex="1" parent="ldAZ7kthjkq9QqOqfzTh-2">
          <mxGeometry x="30" width="210" height="30" as="geometry">
            <mxRectangle width="210" height="30" as="alternateBounds" />
          </mxGeometry>
        </mxCell>
        <mxCell id="ldAZ7kthjkq9QqOqfzTh-5" value="" style="shape=partialRectangle;collapsible=0;dropTarget=0;pointerEvents=0;fillColor=none;points=[[0,0.5],[1,0.5]];portConstraint=eastwest;top=0;left=0;right=0;bottom=0;fontSize=15;fontFamily=Verdana;" vertex="1" parent="ldAZ7kthjkq9QqOqfzTh-1">
          <mxGeometry y="60" width="240" height="30" as="geometry" />
        </mxCell>
        <mxCell id="ldAZ7kthjkq9QqOqfzTh-6" value="" style="shape=partialRectangle;overflow=hidden;connectable=0;fillColor=none;top=0;left=0;bottom=0;right=0;fontSize=15;fontFamily=Verdana;" vertex="1" parent="ldAZ7kthjkq9QqOqfzTh-5">
          <mxGeometry width="30" height="30" as="geometry">
            <mxRectangle width="30" height="30" as="alternateBounds" />
          </mxGeometry>
        </mxCell>
        <mxCell id="ldAZ7kthjkq9QqOqfzTh-7" value="nome VARCHAR(100)" style="shape=partialRectangle;overflow=hidden;connectable=0;fillColor=none;top=0;left=0;bottom=0;right=0;align=left;spacingLeft=6;fontSize=15;fontFamily=Verdana;" vertex="1" parent="ldAZ7kthjkq9QqOqfzTh-5">
          <mxGeometry x="30" width="210" height="30" as="geometry">
            <mxRectangle width="210" height="30" as="alternateBounds" />
          </mxGeometry>
        </mxCell>
        <mxCell id="ldAZ7kthjkq9QqOqfzTh-8" value="" style="shape=partialRectangle;collapsible=0;dropTarget=0;pointerEvents=0;fillColor=none;points=[[0,0.5],[1,0.5]];portConstraint=eastwest;top=0;left=0;right=0;bottom=0;fontSize=15;fontFamily=Verdana;" vertex="1" parent="ldAZ7kthjkq9QqOqfzTh-1">
          <mxGeometry y="90" width="240" height="30" as="geometry" />
        </mxCell>
        <mxCell id="ldAZ7kthjkq9QqOqfzTh-9" value="" style="shape=partialRectangle;overflow=hidden;connectable=0;fillColor=none;top=0;left=0;bottom=0;right=0;fontSize=15;fontFamily=Verdana;" vertex="1" parent="ldAZ7kthjkq9QqOqfzTh-8">
          <mxGeometry width="30" height="30" as="geometry">
            <mxRectangle width="30" height="30" as="alternateBounds" />
          </mxGeometry>
        </mxCell>
        <mxCell id="ldAZ7kthjkq9QqOqfzTh-10" value="tipo ENUM(...)" style="shape=partialRectangle;overflow=hidden;connectable=0;fillColor=none;top=0;left=0;bottom=0;right=0;align=left;spacingLeft=6;fontSize=15;fontFamily=Verdana;" vertex="1" parent="ldAZ7kthjkq9QqOqfzTh-8">
          <mxGeometry x="30" width="210" height="30" as="geometry">
            <mxRectangle width="210" height="30" as="alternateBounds" />
          </mxGeometry>
        </mxCell>
        <mxCell id="ldAZ7kthjkq9QqOqfzTh-14" value="" style="shape=partialRectangle;collapsible=0;dropTarget=0;pointerEvents=0;fillColor=none;points=[[0,0.5],[1,0.5]];portConstraint=eastwest;top=0;left=0;right=0;bottom=0;fontSize=15;fontFamily=Verdana;" vertex="1" parent="ldAZ7kthjkq9QqOqfzTh-1">
          <mxGeometry y="120" width="240" height="30" as="geometry" />
        </mxCell>
        <mxCell id="ldAZ7kthjkq9QqOqfzTh-15" value="" style="shape=partialRectangle;overflow=hidden;connectable=0;fillColor=none;top=0;left=0;bottom=0;right=0;fontSize=15;fontFamily=Verdana;" vertex="1" parent="ldAZ7kthjkq9QqOqfzTh-14">
          <mxGeometry width="30" height="30" as="geometry">
            <mxRectangle width="30" height="30" as="alternateBounds" />
          </mxGeometry>
        </mxCell>
        <mxCell id="ldAZ7kthjkq9QqOqfzTh-16" value="cidadeÂ VARCHAR(255)" style="shape=partialRectangle;overflow=hidden;connectable=0;fillColor=none;top=0;left=0;bottom=0;right=0;align=left;spacingLeft=6;fontSize=15;fontFamily=Verdana;" vertex="1" parent="ldAZ7kthjkq9QqOqfzTh-14">
          <mxGeometry x="30" width="210" height="30" as="geometry">
            <mxRectangle width="210" height="30" as="alternateBounds" />
          </mxGeometry>
        </mxCell>
        <mxCell id="ldAZ7kthjkq9QqOqfzTh-11" value="" style="shape=partialRectangle;collapsible=0;dropTarget=0;pointerEvents=0;fillColor=none;points=[[0,0.5],[1,0.5]];portConstraint=eastwest;top=0;left=0;right=0;bottom=0;fontSize=15;fontFamily=Verdana;" vertex="1" parent="ldAZ7kthjkq9QqOqfzTh-1">
          <mxGeometry y="150" width="240" height="30" as="geometry" />
        </mxCell>
        <mxCell id="ldAZ7kthjkq9QqOqfzTh-12" value="" style="shape=partialRectangle;overflow=hidden;connectable=0;fillColor=none;top=0;left=0;bottom=0;right=0;fontSize=15;fontFamily=Verdana;" vertex="1" parent="ldAZ7kthjkq9QqOqfzTh-11">
          <mxGeometry width="30" height="30" as="geometry">
            <mxRectangle width="30" height="30" as="alternateBounds" />
          </mxGeometry>
        </mxCell>
        <mxCell id="ldAZ7kthjkq9QqOqfzTh-13" value="endereco VARCHAR(255)" style="shape=partialRectangle;overflow=hidden;connectable=0;fillColor=none;top=0;left=0;bottom=0;right=0;align=left;spacingLeft=6;fontSize=15;fontFamily=Verdana;" vertex="1" parent="ldAZ7kthjkq9QqOqfzTh-11">
          <mxGeometry x="30" width="210" height="30" as="geometry">
            <mxRectangle width="210" height="30" as="alternateBounds" />
          </mxGeometry>
        </mxCell>
        <mxCell id="N2QtF2M6v2fr4uQNJSqL-1" value="" style="shape=partialRectangle;collapsible=0;dropTarget=0;pointerEvents=0;fillColor=none;points=[[0,0.5],[1,0.5]];portConstraint=eastwest;top=0;left=0;right=0;bottom=0;fontSize=15;fontFamily=Verdana;" vertex="1" parent="ldAZ7kthjkq9QqOqfzTh-1">
          <mxGeometry y="180" width="240" height="30" as="geometry" />
        </mxCell>
        <mxCell id="N2QtF2M6v2fr4uQNJSqL-2" value="" style="shape=partialRectangle;overflow=hidden;connectable=0;fillColor=none;top=0;left=0;bottom=0;right=0;fontSize=15;fontFamily=Verdana;" vertex="1" parent="N2QtF2M6v2fr4uQNJSqL-1">
          <mxGeometry width="30" height="30" as="geometry">
            <mxRectangle width="30" height="30" as="alternateBounds" />
          </mxGeometry>
        </mxCell>
        <mxCell id="N2QtF2M6v2fr4uQNJSqL-3" value="cep VARCHAR(8)" style="shape=partialRectangle;overflow=hidden;connectable=0;fillColor=none;top=0;left=0;bottom=0;right=0;align=left;spacingLeft=6;fontSize=15;fontFamily=Verdana;" vertex="1" parent="N2QtF2M6v2fr4uQNJSqL-1">
          <mxGeometry x="30" width="210" height="30" as="geometry">
            <mxRectangle width="210" height="30" as="alternateBounds" />
          </mxGeometry>
        </mxCell>
        <mxCell id="ldAZ7kthjkq9QqOqfzTh-17" value="" style="shape=partialRectangle;collapsible=0;dropTarget=0;pointerEvents=0;fillColor=none;points=[[0,0.5],[1,0.5]];portConstraint=eastwest;top=0;left=0;right=0;bottom=0;fontSize=15;fontFamily=Verdana;" vertex="1" parent="ldAZ7kthjkq9QqOqfzTh-1">
          <mxGeometry y="210" width="240" height="30" as="geometry" />
        </mxCell>
        <mxCell id="ldAZ7kthjkq9QqOqfzTh-18" value="" style="shape=partialRectangle;overflow=hidden;connectable=0;fillColor=none;top=0;left=0;bottom=0;right=0;fontSize=15;fontFamily=Verdana;" vertex="1" parent="ldAZ7kthjkq9QqOqfzTh-17">
          <mxGeometry width="30" height="30" as="geometry">
            <mxRectangle width="30" height="30" as="alternateBounds" />
          </mxGeometry>
        </mxCell>
        <mxCell id="ldAZ7kthjkq9QqOqfzTh-19" value="telefone VARCHAR(15)" style="shape=partialRectangle;overflow=hidden;connectable=0;fillColor=none;top=0;left=0;bottom=0;right=0;align=left;spacingLeft=6;fontSize=15;fontFamily=Verdana;" vertex="1" parent="ldAZ7kthjkq9QqOqfzTh-17">
          <mxGeometry x="30" width="210" height="30" as="geometry">
            <mxRectangle width="210" height="30" as="alternateBounds" />
          </mxGeometry>
        </mxCell>
        <mxCell id="ldAZ7kthjkq9QqOqfzTh-20" value="administrador" style="shape=table;startSize=30;container=1;collapsible=1;childLayout=tableLayout;fixedRows=1;rowLines=0;fontStyle=1;align=center;resizeLast=1;fontSize=15;fontFamily=Verdana;" vertex="1" parent="1">
          <mxGeometry x="1370" y="-1110" width="220" height="180" as="geometry" />
        </mxCell>
        <mxCell id="ldAZ7kthjkq9QqOqfzTh-21" value="" style="shape=partialRectangle;collapsible=0;dropTarget=0;pointerEvents=0;fillColor=none;points=[[0,0.5],[1,0.5]];portConstraint=eastwest;top=0;left=0;right=0;bottom=1;fontSize=15;fontFamily=Verdana;" vertex="1" parent="ldAZ7kthjkq9QqOqfzTh-20">
          <mxGeometry y="30" width="220" height="30" as="geometry" />
        </mxCell>
        <mxCell id="ldAZ7kthjkq9QqOqfzTh-22" value="PK" style="shape=partialRectangle;overflow=hidden;connectable=0;fillColor=none;top=0;left=0;bottom=0;right=0;fontStyle=1;fontSize=15;fontFamily=Verdana;" vertex="1" parent="ldAZ7kthjkq9QqOqfzTh-21">
          <mxGeometry width="30" height="30" as="geometry">
            <mxRectangle width="30" height="30" as="alternateBounds" />
          </mxGeometry>
        </mxCell>
        <mxCell id="ldAZ7kthjkq9QqOqfzTh-23" value="id BIGINT" style="shape=partialRectangle;overflow=hidden;connectable=0;fillColor=none;top=0;left=0;bottom=0;right=0;align=left;spacingLeft=6;fontStyle=5;fontSize=15;fontFamily=Verdana;" vertex="1" parent="ldAZ7kthjkq9QqOqfzTh-21">
          <mxGeometry x="30" width="190" height="30" as="geometry">
            <mxRectangle width="190" height="30" as="alternateBounds" />
          </mxGeometry>
        </mxCell>
        <mxCell id="ldAZ7kthjkq9QqOqfzTh-24" value="" style="shape=partialRectangle;collapsible=0;dropTarget=0;pointerEvents=0;fillColor=none;points=[[0,0.5],[1,0.5]];portConstraint=eastwest;top=0;left=0;right=0;bottom=0;fontSize=15;fontFamily=Verdana;" vertex="1" parent="ldAZ7kthjkq9QqOqfzTh-20">
          <mxGeometry y="60" width="220" height="30" as="geometry" />
        </mxCell>
        <mxCell id="ldAZ7kthjkq9QqOqfzTh-25" value="" style="shape=partialRectangle;overflow=hidden;connectable=0;fillColor=none;top=0;left=0;bottom=0;right=0;fontSize=15;fontFamily=Verdana;" vertex="1" parent="ldAZ7kthjkq9QqOqfzTh-24">
          <mxGeometry width="30" height="30" as="geometry">
            <mxRectangle width="30" height="30" as="alternateBounds" />
          </mxGeometry>
        </mxCell>
        <mxCell id="ldAZ7kthjkq9QqOqfzTh-26" value="nome VARCHAR(200)" style="shape=partialRectangle;overflow=hidden;connectable=0;fillColor=none;top=0;left=0;bottom=0;right=0;align=left;spacingLeft=6;fontSize=15;fontFamily=Verdana;" vertex="1" parent="ldAZ7kthjkq9QqOqfzTh-24">
          <mxGeometry x="30" width="190" height="30" as="geometry">
            <mxRectangle width="190" height="30" as="alternateBounds" />
          </mxGeometry>
        </mxCell>
        <mxCell id="ldAZ7kthjkq9QqOqfzTh-27" value="" style="shape=partialRectangle;collapsible=0;dropTarget=0;pointerEvents=0;fillColor=none;points=[[0,0.5],[1,0.5]];portConstraint=eastwest;top=0;left=0;right=0;bottom=0;fontSize=15;fontFamily=Verdana;" vertex="1" parent="ldAZ7kthjkq9QqOqfzTh-20">
          <mxGeometry y="90" width="220" height="30" as="geometry" />
        </mxCell>
        <mxCell id="ldAZ7kthjkq9QqOqfzTh-28" value="" style="shape=partialRectangle;overflow=hidden;connectable=0;fillColor=none;top=0;left=0;bottom=0;right=0;fontSize=15;fontFamily=Verdana;" vertex="1" parent="ldAZ7kthjkq9QqOqfzTh-27">
          <mxGeometry width="30" height="30" as="geometry">
            <mxRectangle width="30" height="30" as="alternateBounds" />
          </mxGeometry>
        </mxCell>
        <mxCell id="ldAZ7kthjkq9QqOqfzTh-29" value="email VARCHAR(100)" style="shape=partialRectangle;overflow=hidden;connectable=0;fillColor=none;top=0;left=0;bottom=0;right=0;align=left;spacingLeft=6;fontSize=15;fontFamily=Verdana;" vertex="1" parent="ldAZ7kthjkq9QqOqfzTh-27">
          <mxGeometry x="30" width="190" height="30" as="geometry">
            <mxRectangle width="190" height="30" as="alternateBounds" />
          </mxGeometry>
        </mxCell>
        <mxCell id="ldAZ7kthjkq9QqOqfzTh-30" value="" style="shape=partialRectangle;collapsible=0;dropTarget=0;pointerEvents=0;fillColor=none;points=[[0,0.5],[1,0.5]];portConstraint=eastwest;top=0;left=0;right=0;bottom=0;fontSize=15;fontFamily=Verdana;" vertex="1" parent="ldAZ7kthjkq9QqOqfzTh-20">
          <mxGeometry y="120" width="220" height="30" as="geometry" />
        </mxCell>
        <mxCell id="ldAZ7kthjkq9QqOqfzTh-31" value="" style="shape=partialRectangle;overflow=hidden;connectable=0;fillColor=none;top=0;left=0;bottom=0;right=0;fontSize=15;fontFamily=Verdana;" vertex="1" parent="ldAZ7kthjkq9QqOqfzTh-30">
          <mxGeometry width="30" height="30" as="geometry">
            <mxRectangle width="30" height="30" as="alternateBounds" />
          </mxGeometry>
        </mxCell>
        <mxCell id="ldAZ7kthjkq9QqOqfzTh-32" value="telefone VARCHAR(15)" style="shape=partialRectangle;overflow=hidden;connectable=0;fillColor=none;top=0;left=0;bottom=0;right=0;align=left;spacingLeft=6;fontSize=15;fontFamily=Verdana;" vertex="1" parent="ldAZ7kthjkq9QqOqfzTh-30">
          <mxGeometry x="30" width="190" height="30" as="geometry">
            <mxRectangle width="190" height="30" as="alternateBounds" />
          </mxGeometry>
        </mxCell>
        <mxCell id="ldAZ7kthjkq9QqOqfzTh-33" value="" style="shape=partialRectangle;collapsible=0;dropTarget=0;pointerEvents=0;fillColor=none;points=[[0,0.5],[1,0.5]];portConstraint=eastwest;top=0;left=0;right=0;bottom=0;fontSize=15;fontFamily=Verdana;" vertex="1" parent="ldAZ7kthjkq9QqOqfzTh-20">
          <mxGeometry y="150" width="220" height="30" as="geometry" />
        </mxCell>
        <mxCell id="ldAZ7kthjkq9QqOqfzTh-34" value="" style="shape=partialRectangle;overflow=hidden;connectable=0;fillColor=none;top=0;left=0;bottom=0;right=0;fontSize=15;fontFamily=Verdana;" vertex="1" parent="ldAZ7kthjkq9QqOqfzTh-33">
          <mxGeometry width="30" height="30" as="geometry">
            <mxRectangle width="30" height="30" as="alternateBounds" />
          </mxGeometry>
        </mxCell>
        <mxCell id="ldAZ7kthjkq9QqOqfzTh-35" value="pernissao ENUM(...)" style="shape=partialRectangle;overflow=hidden;connectable=0;fillColor=none;top=0;left=0;bottom=0;right=0;align=left;spacingLeft=6;fontSize=15;fontFamily=Verdana;" vertex="1" parent="ldAZ7kthjkq9QqOqfzTh-33">
          <mxGeometry x="30" width="190" height="30" as="geometry">
            <mxRectangle width="190" height="30" as="alternateBounds" />
          </mxGeometry>
        </mxCell>
        <mxCell id="ldAZ7kthjkq9QqOqfzTh-36" value="registro_acesso" style="shape=table;startSize=30;container=1;collapsible=1;childLayout=tableLayout;fixedRows=1;rowLines=0;fontStyle=1;align=center;resizeLast=1;fontSize=15;fontFamily=Verdana;" vertex="1" parent="1">
          <mxGeometry x="1084" y="-1110" width="206" height="180" as="geometry" />
        </mxCell>
        <mxCell id="ldAZ7kthjkq9QqOqfzTh-37" value="" style="shape=partialRectangle;collapsible=0;dropTarget=0;pointerEvents=0;fillColor=none;points=[[0,0.5],[1,0.5]];portConstraint=eastwest;top=0;left=0;right=0;bottom=1;fontSize=15;fontFamily=Verdana;" vertex="1" parent="ldAZ7kthjkq9QqOqfzTh-36">
          <mxGeometry y="30" width="206" height="30" as="geometry" />
        </mxCell>
        <mxCell id="ldAZ7kthjkq9QqOqfzTh-38" value="PK" style="shape=partialRectangle;overflow=hidden;connectable=0;fillColor=none;top=0;left=0;bottom=0;right=0;fontStyle=1;fontSize=15;fontFamily=Verdana;" vertex="1" parent="ldAZ7kthjkq9QqOqfzTh-37">
          <mxGeometry width="30" height="30" as="geometry">
            <mxRectangle width="30" height="30" as="alternateBounds" />
          </mxGeometry>
        </mxCell>
        <mxCell id="ldAZ7kthjkq9QqOqfzTh-39" value="id BIGINT" style="shape=partialRectangle;overflow=hidden;connectable=0;fillColor=none;top=0;left=0;bottom=0;right=0;align=left;spacingLeft=6;fontStyle=5;fontSize=15;fontFamily=Verdana;" vertex="1" parent="ldAZ7kthjkq9QqOqfzTh-37">
          <mxGeometry x="30" width="176" height="30" as="geometry">
            <mxRectangle width="176" height="30" as="alternateBounds" />
          </mxGeometry>
        </mxCell>
        <mxCell id="ldAZ7kthjkq9QqOqfzTh-40" value="" style="shape=partialRectangle;collapsible=0;dropTarget=0;pointerEvents=0;fillColor=none;points=[[0,0.5],[1,0.5]];portConstraint=eastwest;top=0;left=0;right=0;bottom=0;fontSize=15;fontFamily=Verdana;" vertex="1" parent="ldAZ7kthjkq9QqOqfzTh-36">
          <mxGeometry y="60" width="206" height="30" as="geometry" />
        </mxCell>
        <mxCell id="ldAZ7kthjkq9QqOqfzTh-41" value="FK" style="shape=partialRectangle;overflow=hidden;connectable=0;fillColor=none;top=0;left=0;bottom=0;right=0;fontSize=15;fontFamily=Verdana;" vertex="1" parent="ldAZ7kthjkq9QqOqfzTh-40">
          <mxGeometry width="30" height="30" as="geometry">
            <mxRectangle width="30" height="30" as="alternateBounds" />
          </mxGeometry>
        </mxCell>
        <mxCell id="ldAZ7kthjkq9QqOqfzTh-42" value="usuario_id BIGINT" style="shape=partialRectangle;overflow=hidden;connectable=0;fillColor=none;top=0;left=0;bottom=0;right=0;align=left;spacingLeft=6;fontSize=15;fontFamily=Verdana;" vertex="1" parent="ldAZ7kthjkq9QqOqfzTh-40">
          <mxGeometry x="30" width="176" height="30" as="geometry">
            <mxRectangle width="176" height="30" as="alternateBounds" />
          </mxGeometry>
        </mxCell>
        <mxCell id="ldAZ7kthjkq9QqOqfzTh-43" value="" style="shape=partialRectangle;collapsible=0;dropTarget=0;pointerEvents=0;fillColor=none;points=[[0,0.5],[1,0.5]];portConstraint=eastwest;top=0;left=0;right=0;bottom=0;fontSize=15;fontFamily=Verdana;" vertex="1" parent="ldAZ7kthjkq9QqOqfzTh-36">
          <mxGeometry y="90" width="206" height="30" as="geometry" />
        </mxCell>
        <mxCell id="ldAZ7kthjkq9QqOqfzTh-44" value="" style="shape=partialRectangle;overflow=hidden;connectable=0;fillColor=none;top=0;left=0;bottom=0;right=0;fontSize=15;fontFamily=Verdana;" vertex="1" parent="ldAZ7kthjkq9QqOqfzTh-43">
          <mxGeometry width="30" height="30" as="geometry">
            <mxRectangle width="30" height="30" as="alternateBounds" />
          </mxGeometry>
        </mxCell>
        <mxCell id="ldAZ7kthjkq9QqOqfzTh-45" value="data_hora DATETIME" style="shape=partialRectangle;overflow=hidden;connectable=0;fillColor=none;top=0;left=0;bottom=0;right=0;align=left;spacingLeft=6;fontSize=15;fontFamily=Verdana;" vertex="1" parent="ldAZ7kthjkq9QqOqfzTh-43">
          <mxGeometry x="30" width="176" height="30" as="geometry">
            <mxRectangle width="176" height="30" as="alternateBounds" />
          </mxGeometry>
        </mxCell>
        <mxCell id="ldAZ7kthjkq9QqOqfzTh-46" value="" style="shape=partialRectangle;collapsible=0;dropTarget=0;pointerEvents=0;fillColor=none;points=[[0,0.5],[1,0.5]];portConstraint=eastwest;top=0;left=0;right=0;bottom=0;fontSize=15;fontFamily=Verdana;" vertex="1" parent="ldAZ7kthjkq9QqOqfzTh-36">
          <mxGeometry y="120" width="206" height="30" as="geometry" />
        </mxCell>
        <mxCell id="ldAZ7kthjkq9QqOqfzTh-47" value="" style="shape=partialRectangle;overflow=hidden;connectable=0;fillColor=none;top=0;left=0;bottom=0;right=0;fontSize=15;fontFamily=Verdana;" vertex="1" parent="ldAZ7kthjkq9QqOqfzTh-46">
          <mxGeometry width="30" height="30" as="geometry">
            <mxRectangle width="30" height="30" as="alternateBounds" />
          </mxGeometry>
        </mxCell>
        <mxCell id="ldAZ7kthjkq9QqOqfzTh-48" value="acao TEXT" style="shape=partialRectangle;overflow=hidden;connectable=0;fillColor=none;top=0;left=0;bottom=0;right=0;align=left;spacingLeft=6;fontSize=15;fontFamily=Verdana;" vertex="1" parent="ldAZ7kthjkq9QqOqfzTh-46">
          <mxGeometry x="30" width="176" height="30" as="geometry">
            <mxRectangle width="176" height="30" as="alternateBounds" />
          </mxGeometry>
        </mxCell>
        <mxCell id="ldAZ7kthjkq9QqOqfzTh-49" value="" style="shape=partialRectangle;collapsible=0;dropTarget=0;pointerEvents=0;fillColor=none;points=[[0,0.5],[1,0.5]];portConstraint=eastwest;top=0;left=0;right=0;bottom=0;fontSize=15;fontFamily=Verdana;" vertex="1" parent="ldAZ7kthjkq9QqOqfzTh-36">
          <mxGeometry y="150" width="206" height="30" as="geometry" />
        </mxCell>
        <mxCell id="ldAZ7kthjkq9QqOqfzTh-50" value="" style="shape=partialRectangle;overflow=hidden;connectable=0;fillColor=none;top=0;left=0;bottom=0;right=0;fontSize=15;fontFamily=Verdana;" vertex="1" parent="ldAZ7kthjkq9QqOqfzTh-49">
          <mxGeometry width="30" height="30" as="geometry">
            <mxRectangle width="30" height="30" as="alternateBounds" />
          </mxGeometry>
        </mxCell>
        <mxCell id="ldAZ7kthjkq9QqOqfzTh-51" value="descricao TEXT" style="shape=partialRectangle;overflow=hidden;connectable=0;fillColor=none;top=0;left=0;bottom=0;right=0;align=left;spacingLeft=6;fontSize=15;fontFamily=Verdana;" vertex="1" parent="ldAZ7kthjkq9QqOqfzTh-49">
          <mxGeometry x="30" width="176" height="30" as="geometry">
            <mxRectangle width="176" height="30" as="alternateBounds" />
          </mxGeometry>
        </mxCell>
        <mxCell id="ldAZ7kthjkq9QqOqfzTh-52" value="paciente" style="shape=table;startSize=20;container=1;collapsible=1;childLayout=tableLayout;fixedRows=1;rowLines=0;fontStyle=1;align=center;resizeLast=1;fontSize=15;fontFamily=Verdana;" vertex="1" parent="1">
          <mxGeometry x="670" y="-861" width="240" height="319" as="geometry" />
        </mxCell>
        <mxCell id="ldAZ7kthjkq9QqOqfzTh-53" value="" style="shape=partialRectangle;collapsible=0;dropTarget=0;pointerEvents=0;fillColor=none;points=[[0,0.5],[1,0.5]];portConstraint=eastwest;top=0;left=0;right=0;bottom=1;fontSize=15;fontFamily=Verdana;" vertex="1" parent="ldAZ7kthjkq9QqOqfzTh-52">
          <mxGeometry y="20" width="240" height="30" as="geometry" />
        </mxCell>
        <mxCell id="ldAZ7kthjkq9QqOqfzTh-54" value="PK" style="shape=partialRectangle;overflow=hidden;connectable=0;fillColor=none;top=0;left=0;bottom=0;right=0;fontStyle=1;fontSize=15;fontFamily=Verdana;" vertex="1" parent="ldAZ7kthjkq9QqOqfzTh-53">
          <mxGeometry width="30" height="30" as="geometry">
            <mxRectangle width="30" height="30" as="alternateBounds" />
          </mxGeometry>
        </mxCell>
        <mxCell id="ldAZ7kthjkq9QqOqfzTh-55" value="idÂ  BIGINT" style="shape=partialRectangle;overflow=hidden;connectable=0;fillColor=none;top=0;left=0;bottom=0;right=0;align=left;spacingLeft=6;fontStyle=5;fontSize=15;fontFamily=Verdana;" vertex="1" parent="ldAZ7kthjkq9QqOqfzTh-53">
          <mxGeometry x="30" width="210" height="30" as="geometry">
            <mxRectangle width="210" height="30" as="alternateBounds" />
          </mxGeometry>
        </mxCell>
        <mxCell id="ldAZ7kthjkq9QqOqfzTh-56" value="" style="shape=partialRectangle;collapsible=0;dropTarget=0;pointerEvents=0;fillColor=none;points=[[0,0.5],[1,0.5]];portConstraint=eastwest;top=0;left=0;right=0;bottom=0;fontSize=15;fontFamily=Verdana;" vertex="1" parent="ldAZ7kthjkq9QqOqfzTh-52">
          <mxGeometry y="50" width="240" height="30" as="geometry" />
        </mxCell>
        <mxCell id="ldAZ7kthjkq9QqOqfzTh-57" value="" style="shape=partialRectangle;overflow=hidden;connectable=0;fillColor=none;top=0;left=0;bottom=0;right=0;fontSize=15;fontFamily=Verdana;" vertex="1" parent="ldAZ7kthjkq9QqOqfzTh-56">
          <mxGeometry width="30" height="30" as="geometry">
            <mxRectangle width="30" height="30" as="alternateBounds" />
          </mxGeometry>
        </mxCell>
        <mxCell id="ldAZ7kthjkq9QqOqfzTh-58" value="nome VARCHAR(200)Â Â Â Â Â Â Â Â " style="shape=partialRectangle;overflow=hidden;connectable=0;fillColor=none;top=0;left=0;bottom=0;right=0;align=left;spacingLeft=6;fontSize=15;fontFamily=Verdana;" vertex="1" parent="ldAZ7kthjkq9QqOqfzTh-56">
          <mxGeometry x="30" width="210" height="30" as="geometry">
            <mxRectangle width="210" height="30" as="alternateBounds" />
          </mxGeometry>
        </mxCell>
        <mxCell id="N2QtF2M6v2fr4uQNJSqL-13" value="" style="shape=partialRectangle;collapsible=0;dropTarget=0;pointerEvents=0;fillColor=none;points=[[0,0.5],[1,0.5]];portConstraint=eastwest;top=0;left=0;right=0;bottom=0;fontSize=15;fontFamily=Verdana;" vertex="1" parent="ldAZ7kthjkq9QqOqfzTh-52">
          <mxGeometry y="80" width="240" height="30" as="geometry" />
        </mxCell>
        <mxCell id="N2QtF2M6v2fr4uQNJSqL-14" value="" style="shape=partialRectangle;overflow=hidden;connectable=0;fillColor=none;top=0;left=0;bottom=0;right=0;fontSize=15;fontFamily=Verdana;" vertex="1" parent="N2QtF2M6v2fr4uQNJSqL-13">
          <mxGeometry width="30" height="30" as="geometry">
            <mxRectangle width="30" height="30" as="alternateBounds" />
          </mxGeometry>
        </mxCell>
        <mxCell id="N2QtF2M6v2fr4uQNJSqL-15" value="cpf VARCHAR(11)" style="shape=partialRectangle;overflow=hidden;connectable=0;fillColor=none;top=0;left=0;bottom=0;right=0;align=left;spacingLeft=6;fontSize=15;fontFamily=Verdana;" vertex="1" parent="N2QtF2M6v2fr4uQNJSqL-13">
          <mxGeometry x="30" width="210" height="30" as="geometry">
            <mxRectangle width="210" height="30" as="alternateBounds" />
          </mxGeometry>
        </mxCell>
        <mxCell id="ldAZ7kthjkq9QqOqfzTh-59" value="" style="shape=partialRectangle;collapsible=0;dropTarget=0;pointerEvents=0;fillColor=none;points=[[0,0.5],[1,0.5]];portConstraint=eastwest;top=0;left=0;right=0;bottom=0;fontSize=15;fontFamily=Verdana;" vertex="1" parent="ldAZ7kthjkq9QqOqfzTh-52">
          <mxGeometry y="110" width="240" height="30" as="geometry" />
        </mxCell>
        <mxCell id="ldAZ7kthjkq9QqOqfzTh-60" value="" style="shape=partialRectangle;overflow=hidden;connectable=0;fillColor=none;top=0;left=0;bottom=0;right=0;fontSize=15;fontFamily=Verdana;" vertex="1" parent="ldAZ7kthjkq9QqOqfzTh-59">
          <mxGeometry width="30" height="30" as="geometry">
            <mxRectangle width="30" height="30" as="alternateBounds" />
          </mxGeometry>
        </mxCell>
        <mxCell id="ldAZ7kthjkq9QqOqfzTh-61" value="sexo ENUM(...)Â Â " style="shape=partialRectangle;overflow=hidden;connectable=0;fillColor=none;top=0;left=0;bottom=0;right=0;align=left;spacingLeft=6;fontSize=15;fontFamily=Verdana;" vertex="1" parent="ldAZ7kthjkq9QqOqfzTh-59">
          <mxGeometry x="30" width="210" height="30" as="geometry">
            <mxRectangle width="210" height="30" as="alternateBounds" />
          </mxGeometry>
        </mxCell>
        <mxCell id="ldAZ7kthjkq9QqOqfzTh-62" value="" style="shape=partialRectangle;collapsible=0;dropTarget=0;pointerEvents=0;fillColor=none;points=[[0,0.5],[1,0.5]];portConstraint=eastwest;top=0;left=0;right=0;bottom=0;fontSize=15;fontFamily=Verdana;" vertex="1" parent="ldAZ7kthjkq9QqOqfzTh-52">
          <mxGeometry y="140" width="240" height="30" as="geometry" />
        </mxCell>
        <mxCell id="ldAZ7kthjkq9QqOqfzTh-63" value="" style="shape=partialRectangle;overflow=hidden;connectable=0;fillColor=none;top=0;left=0;bottom=0;right=0;fontSize=15;fontFamily=Verdana;" vertex="1" parent="ldAZ7kthjkq9QqOqfzTh-62">
          <mxGeometry width="30" height="30" as="geometry">
            <mxRectangle width="30" height="30" as="alternateBounds" />
          </mxGeometry>
        </mxCell>
        <mxCell id="ldAZ7kthjkq9QqOqfzTh-64" value="data_nascimento DATE" style="shape=partialRectangle;overflow=hidden;connectable=0;fillColor=none;top=0;left=0;bottom=0;right=0;align=left;spacingLeft=6;fontSize=15;fontFamily=Verdana;" vertex="1" parent="ldAZ7kthjkq9QqOqfzTh-62">
          <mxGeometry x="30" width="210" height="30" as="geometry">
            <mxRectangle width="210" height="30" as="alternateBounds" />
          </mxGeometry>
        </mxCell>
        <mxCell id="ldAZ7kthjkq9QqOqfzTh-65" value="" style="shape=partialRectangle;collapsible=0;dropTarget=0;pointerEvents=0;fillColor=none;points=[[0,0.5],[1,0.5]];portConstraint=eastwest;top=0;left=0;right=0;bottom=0;fontSize=15;fontFamily=Verdana;" vertex="1" parent="ldAZ7kthjkq9QqOqfzTh-52">
          <mxGeometry y="170" width="240" height="30" as="geometry" />
        </mxCell>
        <mxCell id="ldAZ7kthjkq9QqOqfzTh-66" value="" style="shape=partialRectangle;overflow=hidden;connectable=0;fillColor=none;top=0;left=0;bottom=0;right=0;fontSize=15;fontFamily=Verdana;" vertex="1" parent="ldAZ7kthjkq9QqOqfzTh-65">
          <mxGeometry width="30" height="30" as="geometry">
            <mxRectangle width="30" height="30" as="alternateBounds" />
          </mxGeometry>
        </mxCell>
        <mxCell id="ldAZ7kthjkq9QqOqfzTh-67" value="telefone VARCHAR(15)" style="shape=partialRectangle;overflow=hidden;connectable=0;fillColor=none;top=0;left=0;bottom=0;right=0;align=left;spacingLeft=6;fontSize=15;fontFamily=Verdana;" vertex="1" parent="ldAZ7kthjkq9QqOqfzTh-65">
          <mxGeometry x="30" width="210" height="30" as="geometry">
            <mxRectangle width="210" height="30" as="alternateBounds" />
          </mxGeometry>
        </mxCell>
        <mxCell id="ldAZ7kthjkq9QqOqfzTh-68" value="" style="shape=partialRectangle;collapsible=0;dropTarget=0;pointerEvents=0;fillColor=none;points=[[0,0.5],[1,0.5]];portConstraint=eastwest;top=0;left=0;right=0;bottom=0;fontSize=15;fontFamily=Verdana;" vertex="1" parent="ldAZ7kthjkq9QqOqfzTh-52">
          <mxGeometry y="200" width="240" height="30" as="geometry" />
        </mxCell>
        <mxCell id="ldAZ7kthjkq9QqOqfzTh-69" value="" style="shape=partialRectangle;overflow=hidden;connectable=0;fillColor=none;top=0;left=0;bottom=0;right=0;fontSize=15;fontFamily=Verdana;" vertex="1" parent="ldAZ7kthjkq9QqOqfzTh-68">
          <mxGeometry width="30" height="30" as="geometry">
            <mxRectangle width="30" height="30" as="alternateBounds" />
          </mxGeometry>
        </mxCell>
        <mxCell id="ldAZ7kthjkq9QqOqfzTh-70" value="email VARCHAR(100)" style="shape=partialRectangle;overflow=hidden;connectable=0;fillColor=none;top=0;left=0;bottom=0;right=0;align=left;spacingLeft=6;fontSize=15;fontFamily=Verdana;" vertex="1" parent="ldAZ7kthjkq9QqOqfzTh-68">
          <mxGeometry x="30" width="210" height="30" as="geometry">
            <mxRectangle width="210" height="30" as="alternateBounds" />
          </mxGeometry>
        </mxCell>
        <mxCell id="ldAZ7kthjkq9QqOqfzTh-71" value="" style="shape=partialRectangle;collapsible=0;dropTarget=0;pointerEvents=0;fillColor=none;points=[[0,0.5],[1,0.5]];portConstraint=eastwest;top=0;left=0;right=0;bottom=0;fontSize=15;fontFamily=Verdana;" vertex="1" parent="ldAZ7kthjkq9QqOqfzTh-52">
          <mxGeometry y="230" width="240" height="30" as="geometry" />
        </mxCell>
        <mxCell id="ldAZ7kthjkq9QqOqfzTh-72" value="" style="shape=partialRectangle;overflow=hidden;connectable=0;fillColor=none;top=0;left=0;bottom=0;right=0;fontSize=15;fontFamily=Verdana;" vertex="1" parent="ldAZ7kthjkq9QqOqfzTh-71">
          <mxGeometry width="30" height="30" as="geometry">
            <mxRectangle width="30" height="30" as="alternateBounds" />
          </mxGeometry>
        </mxCell>
        <mxCell id="ldAZ7kthjkq9QqOqfzTh-73" value="cidade VARCHAR(255)" style="shape=partialRectangle;overflow=hidden;connectable=0;fillColor=none;top=0;left=0;bottom=0;right=0;align=left;spacingLeft=6;fontSize=15;fontFamily=Verdana;" vertex="1" parent="ldAZ7kthjkq9QqOqfzTh-71">
          <mxGeometry x="30" width="210" height="30" as="geometry">
            <mxRectangle width="210" height="30" as="alternateBounds" />
          </mxGeometry>
        </mxCell>
        <mxCell id="N2QtF2M6v2fr4uQNJSqL-4" value="" style="shape=partialRectangle;collapsible=0;dropTarget=0;pointerEvents=0;fillColor=none;points=[[0,0.5],[1,0.5]];portConstraint=eastwest;top=0;left=0;right=0;bottom=0;fontSize=15;fontFamily=Verdana;" vertex="1" parent="ldAZ7kthjkq9QqOqfzTh-52">
          <mxGeometry y="260" width="240" height="30" as="geometry" />
        </mxCell>
        <mxCell id="N2QtF2M6v2fr4uQNJSqL-5" value="" style="shape=partialRectangle;overflow=hidden;connectable=0;fillColor=none;top=0;left=0;bottom=0;right=0;fontSize=15;fontFamily=Verdana;" vertex="1" parent="N2QtF2M6v2fr4uQNJSqL-4">
          <mxGeometry width="30" height="30" as="geometry">
            <mxRectangle width="30" height="30" as="alternateBounds" />
          </mxGeometry>
        </mxCell>
        <mxCell id="N2QtF2M6v2fr4uQNJSqL-6" value="cep VARCHAR(8)" style="shape=partialRectangle;overflow=hidden;connectable=0;fillColor=none;top=0;left=0;bottom=0;right=0;align=left;spacingLeft=6;fontSize=15;fontFamily=Verdana;" vertex="1" parent="N2QtF2M6v2fr4uQNJSqL-4">
          <mxGeometry x="30" width="210" height="30" as="geometry">
            <mxRectangle width="210" height="30" as="alternateBounds" />
          </mxGeometry>
        </mxCell>
        <mxCell id="ldAZ7kthjkq9QqOqfzTh-74" value="" style="shape=partialRectangle;collapsible=0;dropTarget=0;pointerEvents=0;fillColor=none;points=[[0,0.5],[1,0.5]];portConstraint=eastwest;top=0;left=0;right=0;bottom=0;fontSize=15;fontFamily=Verdana;" vertex="1" parent="ldAZ7kthjkq9QqOqfzTh-52">
          <mxGeometry y="290" width="240" height="29" as="geometry" />
        </mxCell>
        <mxCell id="ldAZ7kthjkq9QqOqfzTh-75" value="" style="shape=partialRectangle;overflow=hidden;connectable=0;fillColor=none;top=0;left=0;bottom=0;right=0;fontSize=15;fontFamily=Verdana;" vertex="1" parent="ldAZ7kthjkq9QqOqfzTh-74">
          <mxGeometry width="30" height="29" as="geometry">
            <mxRectangle width="30" height="29" as="alternateBounds" />
          </mxGeometry>
        </mxCell>
        <mxCell id="ldAZ7kthjkq9QqOqfzTh-76" value="endereco VARCHAR(255)" style="shape=partialRectangle;overflow=hidden;connectable=0;fillColor=none;top=0;left=0;bottom=0;right=0;align=left;spacingLeft=6;fontSize=15;fontFamily=Verdana;" vertex="1" parent="ldAZ7kthjkq9QqOqfzTh-74">
          <mxGeometry x="30" width="210" height="29" as="geometry">
            <mxRectangle width="210" height="29" as="alternateBounds" />
          </mxGeometry>
        </mxCell>
        <mxCell id="ldAZ7kthjkq9QqOqfzTh-77" value="profissional" style="shape=table;startSize=30;container=1;collapsible=1;childLayout=tableLayout;fixedRows=1;rowLines=0;fontStyle=1;align=center;resizeLast=1;fontSize=15;fontFamily=Verdana;labelBackgroundColor=none;labelBorderColor=none;fontColor=default;" vertex="1" parent="1">
          <mxGeometry x="970" y="-850" width="270" height="240" as="geometry" />
        </mxCell>
        <mxCell id="ldAZ7kthjkq9QqOqfzTh-78" value="" style="shape=partialRectangle;collapsible=0;dropTarget=0;pointerEvents=0;fillColor=none;points=[[0,0.5],[1,0.5]];portConstraint=eastwest;top=0;left=0;right=0;bottom=1;fontSize=15;fontFamily=Verdana;labelBackgroundColor=none;labelBorderColor=none;fontColor=default;" vertex="1" parent="ldAZ7kthjkq9QqOqfzTh-77">
          <mxGeometry y="30" width="270" height="30" as="geometry" />
        </mxCell>
        <mxCell id="ldAZ7kthjkq9QqOqfzTh-79" value="PK" style="shape=partialRectangle;overflow=hidden;connectable=0;fillColor=none;top=0;left=0;bottom=0;right=0;fontStyle=1;fontSize=15;fontFamily=Verdana;labelBackgroundColor=none;labelBorderColor=none;fontColor=default;" vertex="1" parent="ldAZ7kthjkq9QqOqfzTh-78">
          <mxGeometry width="30" height="30" as="geometry">
            <mxRectangle width="30" height="30" as="alternateBounds" />
          </mxGeometry>
        </mxCell>
        <mxCell id="ldAZ7kthjkq9QqOqfzTh-80" value="idÂ  BIGINT" style="shape=partialRectangle;overflow=hidden;connectable=0;fillColor=none;top=0;left=0;bottom=0;right=0;align=left;spacingLeft=6;fontStyle=5;fontSize=15;fontFamily=Verdana;labelBackgroundColor=none;labelBorderColor=none;fontColor=default;" vertex="1" parent="ldAZ7kthjkq9QqOqfzTh-78">
          <mxGeometry x="30" width="240" height="30" as="geometry">
            <mxRectangle width="240" height="30" as="alternateBounds" />
          </mxGeometry>
        </mxCell>
        <mxCell id="ldAZ7kthjkq9QqOqfzTh-81" value="" style="shape=partialRectangle;collapsible=0;dropTarget=0;pointerEvents=0;fillColor=none;points=[[0,0.5],[1,0.5]];portConstraint=eastwest;top=0;left=0;right=0;bottom=0;fontSize=15;fontFamily=Verdana;labelBackgroundColor=none;labelBorderColor=none;fontColor=default;" vertex="1" parent="ldAZ7kthjkq9QqOqfzTh-77">
          <mxGeometry y="60" width="270" height="30" as="geometry" />
        </mxCell>
        <mxCell id="ldAZ7kthjkq9QqOqfzTh-82" value="FK" style="shape=partialRectangle;overflow=hidden;connectable=0;fillColor=none;top=0;left=0;bottom=0;right=0;fontSize=15;fontFamily=Verdana;labelBackgroundColor=none;labelBorderColor=none;fontColor=default;" vertex="1" parent="ldAZ7kthjkq9QqOqfzTh-81">
          <mxGeometry width="30" height="30" as="geometry">
            <mxRectangle width="30" height="30" as="alternateBounds" />
          </mxGeometry>
        </mxCell>
        <mxCell id="ldAZ7kthjkq9QqOqfzTh-83" value="unidade_saude_id BIGINT" style="shape=partialRectangle;overflow=hidden;connectable=0;fillColor=none;top=0;left=0;bottom=0;right=0;align=left;spacingLeft=6;fontSize=15;fontFamily=Verdana;labelBackgroundColor=none;labelBorderColor=none;fontColor=default;" vertex="1" parent="ldAZ7kthjkq9QqOqfzTh-81">
          <mxGeometry x="30" width="240" height="30" as="geometry">
            <mxRectangle width="240" height="30" as="alternateBounds" />
          </mxGeometry>
        </mxCell>
        <mxCell id="ldAZ7kthjkq9QqOqfzTh-84" value="" style="shape=partialRectangle;collapsible=0;dropTarget=0;pointerEvents=0;fillColor=none;points=[[0,0.5],[1,0.5]];portConstraint=eastwest;top=0;left=0;right=0;bottom=0;fontSize=15;fontFamily=Verdana;labelBackgroundColor=none;labelBorderColor=none;fontColor=default;" vertex="1" parent="ldAZ7kthjkq9QqOqfzTh-77">
          <mxGeometry y="90" width="270" height="30" as="geometry" />
        </mxCell>
        <mxCell id="ldAZ7kthjkq9QqOqfzTh-85" value="" style="shape=partialRectangle;overflow=hidden;connectable=0;fillColor=none;top=0;left=0;bottom=0;right=0;fontSize=15;fontFamily=Verdana;labelBackgroundColor=none;labelBorderColor=none;fontColor=default;" vertex="1" parent="ldAZ7kthjkq9QqOqfzTh-84">
          <mxGeometry width="30" height="30" as="geometry">
            <mxRectangle width="30" height="30" as="alternateBounds" />
          </mxGeometry>
        </mxCell>
        <mxCell id="ldAZ7kthjkq9QqOqfzTh-86" value="nome VARCHAR(200)Â Â Â Â Â Â Â Â " style="shape=partialRectangle;overflow=hidden;connectable=0;fillColor=none;top=0;left=0;bottom=0;right=0;align=left;spacingLeft=6;fontSize=15;fontFamily=Verdana;labelBackgroundColor=none;labelBorderColor=none;fontColor=default;" vertex="1" parent="ldAZ7kthjkq9QqOqfzTh-84">
          <mxGeometry x="30" width="240" height="30" as="geometry">
            <mxRectangle width="240" height="30" as="alternateBounds" />
          </mxGeometry>
        </mxCell>
        <mxCell id="ldAZ7kthjkq9QqOqfzTh-87" value="" style="shape=partialRectangle;collapsible=0;dropTarget=0;pointerEvents=0;fillColor=none;points=[[0,0.5],[1,0.5]];portConstraint=eastwest;top=0;left=0;right=0;bottom=0;fontSize=15;fontFamily=Verdana;labelBackgroundColor=none;labelBorderColor=none;fontColor=default;" vertex="1" parent="ldAZ7kthjkq9QqOqfzTh-77">
          <mxGeometry y="120" width="270" height="30" as="geometry" />
        </mxCell>
        <mxCell id="ldAZ7kthjkq9QqOqfzTh-88" value="" style="shape=partialRectangle;overflow=hidden;connectable=0;fillColor=none;top=0;left=0;bottom=0;right=0;fontSize=15;fontFamily=Verdana;labelBackgroundColor=none;labelBorderColor=none;fontColor=default;" vertex="1" parent="ldAZ7kthjkq9QqOqfzTh-87">
          <mxGeometry width="30" height="30" as="geometry">
            <mxRectangle width="30" height="30" as="alternateBounds" />
          </mxGeometry>
        </mxCell>
        <mxCell id="ldAZ7kthjkq9QqOqfzTh-89" value="especialidade VARCHAR(100)" style="shape=partialRectangle;overflow=hidden;connectable=0;fillColor=none;top=0;left=0;bottom=0;right=0;align=left;spacingLeft=6;fontSize=15;fontFamily=Verdana;labelBackgroundColor=none;labelBorderColor=none;fontColor=default;" vertex="1" parent="ldAZ7kthjkq9QqOqfzTh-87">
          <mxGeometry x="30" width="240" height="30" as="geometry">
            <mxRectangle width="240" height="30" as="alternateBounds" />
          </mxGeometry>
        </mxCell>
        <mxCell id="ldAZ7kthjkq9QqOqfzTh-90" value="" style="shape=partialRectangle;collapsible=0;dropTarget=0;pointerEvents=0;fillColor=none;points=[[0,0.5],[1,0.5]];portConstraint=eastwest;top=0;left=0;right=0;bottom=0;fontSize=15;fontFamily=Verdana;labelBackgroundColor=none;labelBorderColor=none;fontColor=default;" vertex="1" parent="ldAZ7kthjkq9QqOqfzTh-77">
          <mxGeometry y="150" width="270" height="30" as="geometry" />
        </mxCell>
        <mxCell id="ldAZ7kthjkq9QqOqfzTh-91" value="" style="shape=partialRectangle;overflow=hidden;connectable=0;fillColor=none;top=0;left=0;bottom=0;right=0;fontSize=15;fontFamily=Verdana;labelBackgroundColor=none;labelBorderColor=none;fontColor=default;" vertex="1" parent="ldAZ7kthjkq9QqOqfzTh-90">
          <mxGeometry width="30" height="30" as="geometry">
            <mxRectangle width="30" height="30" as="alternateBounds" />
          </mxGeometry>
        </mxCell>
        <mxCell id="ldAZ7kthjkq9QqOqfzTh-92" value="telefone VARCHAR(15)" style="shape=partialRectangle;overflow=hidden;connectable=0;fillColor=none;top=0;left=0;bottom=0;right=0;align=left;spacingLeft=6;fontSize=15;fontFamily=Verdana;labelBackgroundColor=none;labelBorderColor=none;fontColor=default;" vertex="1" parent="ldAZ7kthjkq9QqOqfzTh-90">
          <mxGeometry x="30" width="240" height="30" as="geometry">
            <mxRectangle width="240" height="30" as="alternateBounds" />
          </mxGeometry>
        </mxCell>
        <mxCell id="ldAZ7kthjkq9QqOqfzTh-93" value="" style="shape=partialRectangle;collapsible=0;dropTarget=0;pointerEvents=0;fillColor=none;points=[[0,0.5],[1,0.5]];portConstraint=eastwest;top=0;left=0;right=0;bottom=0;fontSize=15;fontFamily=Verdana;labelBackgroundColor=none;labelBorderColor=none;fontColor=default;" vertex="1" parent="ldAZ7kthjkq9QqOqfzTh-77">
          <mxGeometry y="180" width="270" height="30" as="geometry" />
        </mxCell>
        <mxCell id="ldAZ7kthjkq9QqOqfzTh-94" value="" style="shape=partialRectangle;overflow=hidden;connectable=0;fillColor=none;top=0;left=0;bottom=0;right=0;fontSize=15;fontFamily=Verdana;labelBackgroundColor=none;labelBorderColor=none;fontColor=default;" vertex="1" parent="ldAZ7kthjkq9QqOqfzTh-93">
          <mxGeometry width="30" height="30" as="geometry">
            <mxRectangle width="30" height="30" as="alternateBounds" />
          </mxGeometry>
        </mxCell>
        <mxCell id="ldAZ7kthjkq9QqOqfzTh-95" value="email VARCHAR(100)" style="shape=partialRectangle;overflow=hidden;connectable=0;fillColor=none;top=0;left=0;bottom=0;right=0;align=left;spacingLeft=6;fontSize=15;fontFamily=Verdana;labelBackgroundColor=none;labelBorderColor=none;fontColor=default;" vertex="1" parent="ldAZ7kthjkq9QqOqfzTh-93">
          <mxGeometry x="30" width="240" height="30" as="geometry">
            <mxRectangle width="240" height="30" as="alternateBounds" />
          </mxGeometry>
        </mxCell>
        <mxCell id="ldAZ7kthjkq9QqOqfzTh-96" value="" style="shape=partialRectangle;collapsible=0;dropTarget=0;pointerEvents=0;fillColor=none;points=[[0,0.5],[1,0.5]];portConstraint=eastwest;top=0;left=0;right=0;bottom=0;fontSize=15;fontFamily=Verdana;labelBackgroundColor=none;labelBorderColor=none;fontColor=default;" vertex="1" parent="ldAZ7kthjkq9QqOqfzTh-77">
          <mxGeometry y="210" width="270" height="30" as="geometry" />
        </mxCell>
        <mxCell id="ldAZ7kthjkq9QqOqfzTh-97" value="" style="shape=partialRectangle;overflow=hidden;connectable=0;fillColor=none;top=0;left=0;bottom=0;right=0;fontSize=15;fontFamily=Verdana;labelBackgroundColor=none;labelBorderColor=none;fontColor=default;" vertex="1" parent="ldAZ7kthjkq9QqOqfzTh-96">
          <mxGeometry width="30" height="30" as="geometry">
            <mxRectangle width="30" height="30" as="alternateBounds" />
          </mxGeometry>
        </mxCell>
        <mxCell id="ldAZ7kthjkq9QqOqfzTh-98" value="crm_coren VARCHAR(20)" style="shape=partialRectangle;overflow=hidden;connectable=0;fillColor=none;top=0;left=0;bottom=0;right=0;align=left;spacingLeft=6;fontSize=15;fontFamily=Verdana;labelBackgroundColor=none;labelBorderColor=none;fontColor=default;" vertex="1" parent="ldAZ7kthjkq9QqOqfzTh-96">
          <mxGeometry x="30" width="240" height="30" as="geometry">
            <mxRectangle width="240" height="30" as="alternateBounds" />
          </mxGeometry>
        </mxCell>
        <mxCell id="ldAZ7kthjkq9QqOqfzTh-99" value="consultaÂ Â Â Â " style="shape=table;startSize=30;container=1;collapsible=1;childLayout=tableLayout;fixedRows=1;rowLines=0;fontStyle=1;align=center;resizeLast=1;fontSize=15;fontFamily=Verdana;" vertex="1" parent="1">
          <mxGeometry x="1350" y="-850" width="220" height="210" as="geometry" />
        </mxCell>
        <mxCell id="ldAZ7kthjkq9QqOqfzTh-100" value="" style="shape=partialRectangle;collapsible=0;dropTarget=0;pointerEvents=0;fillColor=none;points=[[0,0.5],[1,0.5]];portConstraint=eastwest;top=0;left=0;right=0;bottom=1;fontSize=15;fontFamily=Verdana;" vertex="1" parent="ldAZ7kthjkq9QqOqfzTh-99">
          <mxGeometry y="30" width="220" height="30" as="geometry" />
        </mxCell>
        <mxCell id="ldAZ7kthjkq9QqOqfzTh-101" value="PK" style="shape=partialRectangle;overflow=hidden;connectable=0;fillColor=none;top=0;left=0;bottom=0;right=0;fontStyle=1;fontSize=15;fontFamily=Verdana;" vertex="1" parent="ldAZ7kthjkq9QqOqfzTh-100">
          <mxGeometry width="30" height="30" as="geometry">
            <mxRectangle width="30" height="30" as="alternateBounds" />
          </mxGeometry>
        </mxCell>
        <mxCell id="ldAZ7kthjkq9QqOqfzTh-102" value="id BIGINT" style="shape=partialRectangle;overflow=hidden;connectable=0;fillColor=none;top=0;left=0;bottom=0;right=0;align=left;spacingLeft=6;fontStyle=5;fontSize=15;fontFamily=Verdana;" vertex="1" parent="ldAZ7kthjkq9QqOqfzTh-100">
          <mxGeometry x="30" width="190" height="30" as="geometry">
            <mxRectangle width="190" height="30" as="alternateBounds" />
          </mxGeometry>
        </mxCell>
        <mxCell id="ldAZ7kthjkq9QqOqfzTh-103" value="" style="shape=partialRectangle;collapsible=0;dropTarget=0;pointerEvents=0;fillColor=none;points=[[0,0.5],[1,0.5]];portConstraint=eastwest;top=0;left=0;right=0;bottom=0;fontSize=15;fontFamily=Verdana;" vertex="1" parent="ldAZ7kthjkq9QqOqfzTh-99">
          <mxGeometry y="60" width="220" height="30" as="geometry" />
        </mxCell>
        <mxCell id="ldAZ7kthjkq9QqOqfzTh-104" value="FK" style="shape=partialRectangle;overflow=hidden;connectable=0;fillColor=none;top=0;left=0;bottom=0;right=0;fontSize=15;fontFamily=Verdana;" vertex="1" parent="ldAZ7kthjkq9QqOqfzTh-103">
          <mxGeometry width="30" height="30" as="geometry">
            <mxRectangle width="30" height="30" as="alternateBounds" />
          </mxGeometry>
        </mxCell>
        <mxCell id="ldAZ7kthjkq9QqOqfzTh-105" value="paciente_id BIGINT" style="shape=partialRectangle;overflow=hidden;connectable=0;fillColor=none;top=0;left=0;bottom=0;right=0;align=left;spacingLeft=6;fontSize=15;fontFamily=Verdana;" vertex="1" parent="ldAZ7kthjkq9QqOqfzTh-103">
          <mxGeometry x="30" width="190" height="30" as="geometry">
            <mxRectangle width="190" height="30" as="alternateBounds" />
          </mxGeometry>
        </mxCell>
        <mxCell id="ldAZ7kthjkq9QqOqfzTh-106" value="" style="shape=partialRectangle;collapsible=0;dropTarget=0;pointerEvents=0;fillColor=none;points=[[0,0.5],[1,0.5]];portConstraint=eastwest;top=0;left=0;right=0;bottom=0;fontSize=15;fontFamily=Verdana;" vertex="1" parent="ldAZ7kthjkq9QqOqfzTh-99">
          <mxGeometry y="90" width="220" height="30" as="geometry" />
        </mxCell>
        <mxCell id="ldAZ7kthjkq9QqOqfzTh-107" value="FK" style="shape=partialRectangle;overflow=hidden;connectable=0;fillColor=none;top=0;left=0;bottom=0;right=0;fontSize=15;fontFamily=Verdana;" vertex="1" parent="ldAZ7kthjkq9QqOqfzTh-106">
          <mxGeometry width="30" height="30" as="geometry">
            <mxRectangle width="30" height="30" as="alternateBounds" />
          </mxGeometry>
        </mxCell>
        <mxCell id="ldAZ7kthjkq9QqOqfzTh-108" value="profissional_id BIGINT" style="shape=partialRectangle;overflow=hidden;connectable=0;fillColor=none;top=0;left=0;bottom=0;right=0;align=left;spacingLeft=6;fontSize=15;fontFamily=Verdana;" vertex="1" parent="ldAZ7kthjkq9QqOqfzTh-106">
          <mxGeometry x="30" width="190" height="30" as="geometry">
            <mxRectangle width="190" height="30" as="alternateBounds" />
          </mxGeometry>
        </mxCell>
        <mxCell id="ldAZ7kthjkq9QqOqfzTh-109" value="" style="shape=partialRectangle;collapsible=0;dropTarget=0;pointerEvents=0;fillColor=none;points=[[0,0.5],[1,0.5]];portConstraint=eastwest;top=0;left=0;right=0;bottom=0;fontSize=15;fontFamily=Verdana;" vertex="1" parent="ldAZ7kthjkq9QqOqfzTh-99">
          <mxGeometry y="120" width="220" height="30" as="geometry" />
        </mxCell>
        <mxCell id="ldAZ7kthjkq9QqOqfzTh-110" value="" style="shape=partialRectangle;overflow=hidden;connectable=0;fillColor=none;top=0;left=0;bottom=0;right=0;fontSize=15;fontFamily=Verdana;" vertex="1" parent="ldAZ7kthjkq9QqOqfzTh-109">
          <mxGeometry width="30" height="30" as="geometry">
            <mxRectangle width="30" height="30" as="alternateBounds" />
          </mxGeometry>
        </mxCell>
        <mxCell id="ldAZ7kthjkq9QqOqfzTh-111" value="data_hora DATETIME" style="shape=partialRectangle;overflow=hidden;connectable=0;fillColor=none;top=0;left=0;bottom=0;right=0;align=left;spacingLeft=6;fontSize=15;fontFamily=Verdana;" vertex="1" parent="ldAZ7kthjkq9QqOqfzTh-109">
          <mxGeometry x="30" width="190" height="30" as="geometry">
            <mxRectangle width="190" height="30" as="alternateBounds" />
          </mxGeometry>
        </mxCell>
        <mxCell id="ldAZ7kthjkq9QqOqfzTh-112" value="" style="shape=partialRectangle;collapsible=0;dropTarget=0;pointerEvents=0;fillColor=none;points=[[0,0.5],[1,0.5]];portConstraint=eastwest;top=0;left=0;right=0;bottom=0;fontSize=15;fontFamily=Verdana;" vertex="1" parent="ldAZ7kthjkq9QqOqfzTh-99">
          <mxGeometry y="150" width="220" height="30" as="geometry" />
        </mxCell>
        <mxCell id="ldAZ7kthjkq9QqOqfzTh-113" value="" style="shape=partialRectangle;overflow=hidden;connectable=0;fillColor=none;top=0;left=0;bottom=0;right=0;fontSize=15;fontFamily=Verdana;" vertex="1" parent="ldAZ7kthjkq9QqOqfzTh-112">
          <mxGeometry width="30" height="30" as="geometry">
            <mxRectangle width="30" height="30" as="alternateBounds" />
          </mxGeometry>
        </mxCell>
        <mxCell id="ldAZ7kthjkq9QqOqfzTh-114" value="tipo ENUM(...)" style="shape=partialRectangle;overflow=hidden;connectable=0;fillColor=none;top=0;left=0;bottom=0;right=0;align=left;spacingLeft=6;fontSize=15;fontFamily=Verdana;" vertex="1" parent="ldAZ7kthjkq9QqOqfzTh-112">
          <mxGeometry x="30" width="190" height="30" as="geometry">
            <mxRectangle width="190" height="30" as="alternateBounds" />
          </mxGeometry>
        </mxCell>
        <mxCell id="ldAZ7kthjkq9QqOqfzTh-115" value="" style="shape=partialRectangle;collapsible=0;dropTarget=0;pointerEvents=0;fillColor=none;points=[[0,0.5],[1,0.5]];portConstraint=eastwest;top=0;left=0;right=0;bottom=0;fontSize=15;fontFamily=Verdana;" vertex="1" parent="ldAZ7kthjkq9QqOqfzTh-99">
          <mxGeometry y="180" width="220" height="30" as="geometry" />
        </mxCell>
        <mxCell id="ldAZ7kthjkq9QqOqfzTh-116" value="" style="shape=partialRectangle;overflow=hidden;connectable=0;fillColor=none;top=0;left=0;bottom=0;right=0;fontSize=15;fontFamily=Verdana;" vertex="1" parent="ldAZ7kthjkq9QqOqfzTh-115">
          <mxGeometry width="30" height="30" as="geometry">
            <mxRectangle width="30" height="30" as="alternateBounds" />
          </mxGeometry>
        </mxCell>
        <mxCell id="ldAZ7kthjkq9QqOqfzTh-117" value="status ENUM(...)" style="shape=partialRectangle;overflow=hidden;connectable=0;fillColor=none;top=0;left=0;bottom=0;right=0;align=left;spacingLeft=6;fontSize=15;fontFamily=Verdana;" vertex="1" parent="ldAZ7kthjkq9QqOqfzTh-115">
          <mxGeometry x="30" width="190" height="30" as="geometry">
            <mxRectangle width="190" height="30" as="alternateBounds" />
          </mxGeometry>
        </mxCell>
        <mxCell id="ldAZ7kthjkq9QqOqfzTh-118" value="agendamento" style="shape=table;startSize=30;container=1;collapsible=1;childLayout=tableLayout;fixedRows=1;rowLines=0;fontStyle=1;align=center;resizeLast=1;fontSize=15;fontFamily=Verdana;" vertex="1" parent="1">
          <mxGeometry x="1590" y="-865" width="240" height="240" as="geometry" />
        </mxCell>
        <mxCell id="ldAZ7kthjkq9QqOqfzTh-119" value="" style="shape=partialRectangle;collapsible=0;dropTarget=0;pointerEvents=0;fillColor=none;points=[[0,0.5],[1,0.5]];portConstraint=eastwest;top=0;left=0;right=0;bottom=1;fontSize=15;fontFamily=Verdana;" vertex="1" parent="ldAZ7kthjkq9QqOqfzTh-118">
          <mxGeometry y="30" width="240" height="30" as="geometry" />
        </mxCell>
        <mxCell id="ldAZ7kthjkq9QqOqfzTh-120" value="PK" style="shape=partialRectangle;overflow=hidden;connectable=0;fillColor=none;top=0;left=0;bottom=0;right=0;fontStyle=1;fontSize=15;fontFamily=Verdana;" vertex="1" parent="ldAZ7kthjkq9QqOqfzTh-119">
          <mxGeometry width="30" height="30" as="geometry">
            <mxRectangle width="30" height="30" as="alternateBounds" />
          </mxGeometry>
        </mxCell>
        <mxCell id="ldAZ7kthjkq9QqOqfzTh-121" value="id BIGINT" style="shape=partialRectangle;overflow=hidden;connectable=0;fillColor=none;top=0;left=0;bottom=0;right=0;align=left;spacingLeft=6;fontStyle=5;fontSize=15;fontFamily=Verdana;" vertex="1" parent="ldAZ7kthjkq9QqOqfzTh-119">
          <mxGeometry x="30" width="210" height="30" as="geometry">
            <mxRectangle width="210" height="30" as="alternateBounds" />
          </mxGeometry>
        </mxCell>
        <mxCell id="ldAZ7kthjkq9QqOqfzTh-122" value="" style="shape=partialRectangle;collapsible=0;dropTarget=0;pointerEvents=0;fillColor=none;points=[[0,0.5],[1,0.5]];portConstraint=eastwest;top=0;left=0;right=0;bottom=0;fontSize=15;fontFamily=Verdana;" vertex="1" parent="ldAZ7kthjkq9QqOqfzTh-118">
          <mxGeometry y="60" width="240" height="30" as="geometry" />
        </mxCell>
        <mxCell id="ldAZ7kthjkq9QqOqfzTh-123" value="FK" style="shape=partialRectangle;overflow=hidden;connectable=0;fillColor=none;top=0;left=0;bottom=0;right=0;fontSize=15;fontFamily=Verdana;" vertex="1" parent="ldAZ7kthjkq9QqOqfzTh-122">
          <mxGeometry width="30" height="30" as="geometry">
            <mxRectangle width="30" height="30" as="alternateBounds" />
          </mxGeometry>
        </mxCell>
        <mxCell id="ldAZ7kthjkq9QqOqfzTh-124" value="paciente_id BIGINT" style="shape=partialRectangle;overflow=hidden;connectable=0;fillColor=none;top=0;left=0;bottom=0;right=0;align=left;spacingLeft=6;fontSize=15;fontFamily=Verdana;" vertex="1" parent="ldAZ7kthjkq9QqOqfzTh-122">
          <mxGeometry x="30" width="210" height="30" as="geometry">
            <mxRectangle width="210" height="30" as="alternateBounds" />
          </mxGeometry>
        </mxCell>
        <mxCell id="qFZnYcxSt_gtxbZSDBj5-1" value="" style="shape=partialRectangle;collapsible=0;dropTarget=0;pointerEvents=0;fillColor=none;points=[[0,0.5],[1,0.5]];portConstraint=eastwest;top=0;left=0;right=0;bottom=0;fontSize=15;fontFamily=Verdana;" vertex="1" parent="ldAZ7kthjkq9QqOqfzTh-118">
          <mxGeometry y="90" width="240" height="30" as="geometry" />
        </mxCell>
        <mxCell id="qFZnYcxSt_gtxbZSDBj5-2" value="FK" style="shape=partialRectangle;overflow=hidden;connectable=0;fillColor=none;top=0;left=0;bottom=0;right=0;fontSize=15;fontFamily=Verdana;" vertex="1" parent="qFZnYcxSt_gtxbZSDBj5-1">
          <mxGeometry width="30" height="30" as="geometry">
            <mxRectangle width="30" height="30" as="alternateBounds" />
          </mxGeometry>
        </mxCell>
        <mxCell id="qFZnYcxSt_gtxbZSDBj5-3" value="unidade_saude_id BIGINT" style="shape=partialRectangle;overflow=hidden;connectable=0;fillColor=none;top=0;left=0;bottom=0;right=0;align=left;spacingLeft=6;fontSize=15;fontFamily=Verdana;" vertex="1" parent="qFZnYcxSt_gtxbZSDBj5-1">
          <mxGeometry x="30" width="210" height="30" as="geometry">
            <mxRectangle width="210" height="30" as="alternateBounds" />
          </mxGeometry>
        </mxCell>
        <mxCell id="ldAZ7kthjkq9QqOqfzTh-125" value="" style="shape=partialRectangle;collapsible=0;dropTarget=0;pointerEvents=0;fillColor=none;points=[[0,0.5],[1,0.5]];portConstraint=eastwest;top=0;left=0;right=0;bottom=0;fontSize=15;fontFamily=Verdana;" vertex="1" parent="ldAZ7kthjkq9QqOqfzTh-118">
          <mxGeometry y="120" width="240" height="30" as="geometry" />
        </mxCell>
        <mxCell id="ldAZ7kthjkq9QqOqfzTh-126" value="FK" style="shape=partialRectangle;overflow=hidden;connectable=0;fillColor=none;top=0;left=0;bottom=0;right=0;fontSize=15;fontFamily=Verdana;" vertex="1" parent="ldAZ7kthjkq9QqOqfzTh-125">
          <mxGeometry width="30" height="30" as="geometry">
            <mxRectangle width="30" height="30" as="alternateBounds" />
          </mxGeometry>
        </mxCell>
        <mxCell id="ldAZ7kthjkq9QqOqfzTh-127" value="profissional_id INT" style="shape=partialRectangle;overflow=hidden;connectable=0;fillColor=none;top=0;left=0;bottom=0;right=0;align=left;spacingLeft=6;fontSize=15;fontFamily=Verdana;" vertex="1" parent="ldAZ7kthjkq9QqOqfzTh-125">
          <mxGeometry x="30" width="210" height="30" as="geometry">
            <mxRectangle width="210" height="30" as="alternateBounds" />
          </mxGeometry>
        </mxCell>
        <mxCell id="ldAZ7kthjkq9QqOqfzTh-128" value="" style="shape=partialRectangle;collapsible=0;dropTarget=0;pointerEvents=0;fillColor=none;points=[[0,0.5],[1,0.5]];portConstraint=eastwest;top=0;left=0;right=0;bottom=0;fontSize=15;fontFamily=Verdana;" vertex="1" parent="ldAZ7kthjkq9QqOqfzTh-118">
          <mxGeometry y="150" width="240" height="30" as="geometry" />
        </mxCell>
        <mxCell id="ldAZ7kthjkq9QqOqfzTh-129" value="" style="shape=partialRectangle;overflow=hidden;connectable=0;fillColor=none;top=0;left=0;bottom=0;right=0;fontSize=15;fontFamily=Verdana;" vertex="1" parent="ldAZ7kthjkq9QqOqfzTh-128">
          <mxGeometry width="30" height="30" as="geometry">
            <mxRectangle width="30" height="30" as="alternateBounds" />
          </mxGeometry>
        </mxCell>
        <mxCell id="ldAZ7kthjkq9QqOqfzTh-130" value="especialidade STRING" style="shape=partialRectangle;overflow=hidden;connectable=0;fillColor=none;top=0;left=0;bottom=0;right=0;align=left;spacingLeft=6;fontSize=15;fontFamily=Verdana;" vertex="1" parent="ldAZ7kthjkq9QqOqfzTh-128">
          <mxGeometry x="30" width="210" height="30" as="geometry">
            <mxRectangle width="210" height="30" as="alternateBounds" />
          </mxGeometry>
        </mxCell>
        <mxCell id="ldAZ7kthjkq9QqOqfzTh-131" value="" style="shape=partialRectangle;collapsible=0;dropTarget=0;pointerEvents=0;fillColor=none;points=[[0,0.5],[1,0.5]];portConstraint=eastwest;top=0;left=0;right=0;bottom=0;fontSize=15;fontFamily=Verdana;" vertex="1" parent="ldAZ7kthjkq9QqOqfzTh-118">
          <mxGeometry y="180" width="240" height="30" as="geometry" />
        </mxCell>
        <mxCell id="ldAZ7kthjkq9QqOqfzTh-132" value="" style="shape=partialRectangle;overflow=hidden;connectable=0;fillColor=none;top=0;left=0;bottom=0;right=0;fontSize=15;fontFamily=Verdana;" vertex="1" parent="ldAZ7kthjkq9QqOqfzTh-131">
          <mxGeometry width="30" height="30" as="geometry">
            <mxRectangle width="30" height="30" as="alternateBounds" />
          </mxGeometry>
        </mxCell>
        <mxCell id="ldAZ7kthjkq9QqOqfzTh-133" value="dataHora DATETIME" style="shape=partialRectangle;overflow=hidden;connectable=0;fillColor=none;top=0;left=0;bottom=0;right=0;align=left;spacingLeft=6;fontSize=15;fontFamily=Verdana;" vertex="1" parent="ldAZ7kthjkq9QqOqfzTh-131">
          <mxGeometry x="30" width="210" height="30" as="geometry">
            <mxRectangle width="210" height="30" as="alternateBounds" />
          </mxGeometry>
        </mxCell>
        <mxCell id="ldAZ7kthjkq9QqOqfzTh-134" value="" style="shape=partialRectangle;collapsible=0;dropTarget=0;pointerEvents=0;fillColor=none;points=[[0,0.5],[1,0.5]];portConstraint=eastwest;top=0;left=0;right=0;bottom=0;fontSize=15;fontFamily=Verdana;" vertex="1" parent="ldAZ7kthjkq9QqOqfzTh-118">
          <mxGeometry y="210" width="240" height="30" as="geometry" />
        </mxCell>
        <mxCell id="ldAZ7kthjkq9QqOqfzTh-135" value="" style="shape=partialRectangle;overflow=hidden;connectable=0;fillColor=none;top=0;left=0;bottom=0;right=0;fontSize=15;fontFamily=Verdana;" vertex="1" parent="ldAZ7kthjkq9QqOqfzTh-134">
          <mxGeometry width="30" height="30" as="geometry">
            <mxRectangle width="30" height="30" as="alternateBounds" />
          </mxGeometry>
        </mxCell>
        <mxCell id="ldAZ7kthjkq9QqOqfzTh-136" value="status ENUM(...)" style="shape=partialRectangle;overflow=hidden;connectable=0;fillColor=none;top=0;left=0;bottom=0;right=0;align=left;spacingLeft=6;fontSize=15;fontFamily=Verdana;" vertex="1" parent="ldAZ7kthjkq9QqOqfzTh-134">
          <mxGeometry x="30" width="210" height="30" as="geometry">
            <mxRectangle width="210" height="30" as="alternateBounds" />
          </mxGeometry>
        </mxCell>
        <mxCell id="ldAZ7kthjkq9QqOqfzTh-137" value="prontuario" style="shape=table;startSize=30;container=1;collapsible=1;childLayout=tableLayout;fixedRows=1;rowLines=0;fontStyle=1;align=center;resizeLast=1;fontSize=15;fontFamily=Verdana;" vertex="1" parent="1">
          <mxGeometry x="680" y="-520" width="230" height="180" as="geometry" />
        </mxCell>
        <mxCell id="ldAZ7kthjkq9QqOqfzTh-138" value="" style="shape=partialRectangle;collapsible=0;dropTarget=0;pointerEvents=0;fillColor=none;points=[[0,0.5],[1,0.5]];portConstraint=eastwest;top=0;left=0;right=0;bottom=1;fontSize=15;fontFamily=Verdana;" vertex="1" parent="ldAZ7kthjkq9QqOqfzTh-137">
          <mxGeometry y="30" width="230" height="30" as="geometry" />
        </mxCell>
        <mxCell id="ldAZ7kthjkq9QqOqfzTh-139" value="PK" style="shape=partialRectangle;overflow=hidden;connectable=0;fillColor=none;top=0;left=0;bottom=0;right=0;fontStyle=1;fontSize=15;fontFamily=Verdana;" vertex="1" parent="ldAZ7kthjkq9QqOqfzTh-138">
          <mxGeometry width="30" height="30" as="geometry">
            <mxRectangle width="30" height="30" as="alternateBounds" />
          </mxGeometry>
        </mxCell>
        <mxCell id="ldAZ7kthjkq9QqOqfzTh-140" value="id BIGINT" style="shape=partialRectangle;overflow=hidden;connectable=0;fillColor=none;top=0;left=0;bottom=0;right=0;align=left;spacingLeft=6;fontStyle=5;fontSize=15;fontFamily=Verdana;" vertex="1" parent="ldAZ7kthjkq9QqOqfzTh-138">
          <mxGeometry x="30" width="200" height="30" as="geometry">
            <mxRectangle width="200" height="30" as="alternateBounds" />
          </mxGeometry>
        </mxCell>
        <mxCell id="ldAZ7kthjkq9QqOqfzTh-141" value="" style="shape=partialRectangle;collapsible=0;dropTarget=0;pointerEvents=0;fillColor=none;points=[[0,0.5],[1,0.5]];portConstraint=eastwest;top=0;left=0;right=0;bottom=0;fontSize=15;fontFamily=Verdana;" vertex="1" parent="ldAZ7kthjkq9QqOqfzTh-137">
          <mxGeometry y="60" width="230" height="30" as="geometry" />
        </mxCell>
        <mxCell id="ldAZ7kthjkq9QqOqfzTh-142" value="FK" style="shape=partialRectangle;overflow=hidden;connectable=0;fillColor=none;top=0;left=0;bottom=0;right=0;fontSize=15;fontFamily=Verdana;" vertex="1" parent="ldAZ7kthjkq9QqOqfzTh-141">
          <mxGeometry width="30" height="30" as="geometry">
            <mxRectangle width="30" height="30" as="alternateBounds" />
          </mxGeometry>
        </mxCell>
        <mxCell id="ldAZ7kthjkq9QqOqfzTh-143" value="paciente_id BIGINT" style="shape=partialRectangle;overflow=hidden;connectable=0;fillColor=none;top=0;left=0;bottom=0;right=0;align=left;spacingLeft=6;fontSize=15;fontFamily=Verdana;" vertex="1" parent="ldAZ7kthjkq9QqOqfzTh-141">
          <mxGeometry x="30" width="200" height="30" as="geometry">
            <mxRectangle width="200" height="30" as="alternateBounds" />
          </mxGeometry>
        </mxCell>
        <mxCell id="ldAZ7kthjkq9QqOqfzTh-144" value="" style="shape=partialRectangle;collapsible=0;dropTarget=0;pointerEvents=0;fillColor=none;points=[[0,0.5],[1,0.5]];portConstraint=eastwest;top=0;left=0;right=0;bottom=0;fontSize=15;fontFamily=Verdana;" vertex="1" parent="ldAZ7kthjkq9QqOqfzTh-137">
          <mxGeometry y="90" width="230" height="30" as="geometry" />
        </mxCell>
        <mxCell id="ldAZ7kthjkq9QqOqfzTh-145" value="FK" style="shape=partialRectangle;overflow=hidden;connectable=0;fillColor=none;top=0;left=0;bottom=0;right=0;fontSize=15;fontFamily=Verdana;" vertex="1" parent="ldAZ7kthjkq9QqOqfzTh-144">
          <mxGeometry width="30" height="30" as="geometry">
            <mxRectangle width="30" height="30" as="alternateBounds" />
          </mxGeometry>
        </mxCell>
        <mxCell id="ldAZ7kthjkq9QqOqfzTh-146" value="profissional_id BIGINT" style="shape=partialRectangle;overflow=hidden;connectable=0;fillColor=none;top=0;left=0;bottom=0;right=0;align=left;spacingLeft=6;fontSize=15;fontFamily=Verdana;" vertex="1" parent="ldAZ7kthjkq9QqOqfzTh-144">
          <mxGeometry x="30" width="200" height="30" as="geometry">
            <mxRectangle width="200" height="30" as="alternateBounds" />
          </mxGeometry>
        </mxCell>
        <mxCell id="ldAZ7kthjkq9QqOqfzTh-147" value="" style="shape=partialRectangle;collapsible=0;dropTarget=0;pointerEvents=0;fillColor=none;points=[[0,0.5],[1,0.5]];portConstraint=eastwest;top=0;left=0;right=0;bottom=0;fontSize=15;fontFamily=Verdana;" vertex="1" parent="ldAZ7kthjkq9QqOqfzTh-137">
          <mxGeometry y="120" width="230" height="30" as="geometry" />
        </mxCell>
        <mxCell id="ldAZ7kthjkq9QqOqfzTh-148" value="" style="shape=partialRectangle;overflow=hidden;connectable=0;fillColor=none;top=0;left=0;bottom=0;right=0;fontSize=15;fontFamily=Verdana;" vertex="1" parent="ldAZ7kthjkq9QqOqfzTh-147">
          <mxGeometry width="30" height="30" as="geometry">
            <mxRectangle width="30" height="30" as="alternateBounds" />
          </mxGeometry>
        </mxCell>
        <mxCell id="ldAZ7kthjkq9QqOqfzTh-149" value="data_registro DATETIME" style="shape=partialRectangle;overflow=hidden;connectable=0;fillColor=none;top=0;left=0;bottom=0;right=0;align=left;spacingLeft=6;fontSize=15;fontFamily=Verdana;" vertex="1" parent="ldAZ7kthjkq9QqOqfzTh-147">
          <mxGeometry x="30" width="200" height="30" as="geometry">
            <mxRectangle width="200" height="30" as="alternateBounds" />
          </mxGeometry>
        </mxCell>
        <mxCell id="ldAZ7kthjkq9QqOqfzTh-150" value="" style="shape=partialRectangle;collapsible=0;dropTarget=0;pointerEvents=0;fillColor=none;points=[[0,0.5],[1,0.5]];portConstraint=eastwest;top=0;left=0;right=0;bottom=0;fontSize=15;fontFamily=Verdana;" vertex="1" parent="ldAZ7kthjkq9QqOqfzTh-137">
          <mxGeometry y="150" width="230" height="30" as="geometry" />
        </mxCell>
        <mxCell id="ldAZ7kthjkq9QqOqfzTh-151" value="" style="shape=partialRectangle;overflow=hidden;connectable=0;fillColor=none;top=0;left=0;bottom=0;right=0;fontSize=15;fontFamily=Verdana;" vertex="1" parent="ldAZ7kthjkq9QqOqfzTh-150">
          <mxGeometry width="30" height="30" as="geometry">
            <mxRectangle width="30" height="30" as="alternateBounds" />
          </mxGeometry>
        </mxCell>
        <mxCell id="ldAZ7kthjkq9QqOqfzTh-152" value="descricao TEXT" style="shape=partialRectangle;overflow=hidden;connectable=0;fillColor=none;top=0;left=0;bottom=0;right=0;align=left;spacingLeft=6;fontSize=15;fontFamily=Verdana;" vertex="1" parent="ldAZ7kthjkq9QqOqfzTh-150">
          <mxGeometry x="30" width="200" height="30" as="geometry">
            <mxRectangle width="200" height="30" as="alternateBounds" />
          </mxGeometry>
        </mxCell>
        <mxCell id="ldAZ7kthjkq9QqOqfzTh-153" value="prescricao" style="shape=table;startSize=30;container=1;collapsible=1;childLayout=tableLayout;fixedRows=1;rowLines=0;fontStyle=1;align=center;resizeLast=1;fontSize=15;fontFamily=Verdana;" vertex="1" parent="1">
          <mxGeometry x="930" y="-530" width="270" height="180" as="geometry" />
        </mxCell>
        <mxCell id="ldAZ7kthjkq9QqOqfzTh-154" value="" style="shape=partialRectangle;collapsible=0;dropTarget=0;pointerEvents=0;fillColor=none;points=[[0,0.5],[1,0.5]];portConstraint=eastwest;top=0;left=0;right=0;bottom=1;fontSize=15;fontFamily=Verdana;" vertex="1" parent="ldAZ7kthjkq9QqOqfzTh-153">
          <mxGeometry y="30" width="270" height="30" as="geometry" />
        </mxCell>
        <mxCell id="ldAZ7kthjkq9QqOqfzTh-155" value="PK" style="shape=partialRectangle;overflow=hidden;connectable=0;fillColor=none;top=0;left=0;bottom=0;right=0;fontStyle=1;fontSize=15;fontFamily=Verdana;" vertex="1" parent="ldAZ7kthjkq9QqOqfzTh-154">
          <mxGeometry width="30" height="30" as="geometry">
            <mxRectangle width="30" height="30" as="alternateBounds" />
          </mxGeometry>
        </mxCell>
        <mxCell id="ldAZ7kthjkq9QqOqfzTh-156" value="id BIGINT" style="shape=partialRectangle;overflow=hidden;connectable=0;fillColor=none;top=0;left=0;bottom=0;right=0;align=left;spacingLeft=6;fontStyle=5;fontSize=15;fontFamily=Verdana;" vertex="1" parent="ldAZ7kthjkq9QqOqfzTh-154">
          <mxGeometry x="30" width="240" height="30" as="geometry">
            <mxRectangle width="240" height="30" as="alternateBounds" />
          </mxGeometry>
        </mxCell>
        <mxCell id="ldAZ7kthjkq9QqOqfzTh-157" value="" style="shape=partialRectangle;collapsible=0;dropTarget=0;pointerEvents=0;fillColor=none;points=[[0,0.5],[1,0.5]];portConstraint=eastwest;top=0;left=0;right=0;bottom=0;fontSize=15;fontFamily=Verdana;" vertex="1" parent="ldAZ7kthjkq9QqOqfzTh-153">
          <mxGeometry y="60" width="270" height="30" as="geometry" />
        </mxCell>
        <mxCell id="ldAZ7kthjkq9QqOqfzTh-158" value="FK" style="shape=partialRectangle;overflow=hidden;connectable=0;fillColor=none;top=0;left=0;bottom=0;right=0;fontSize=15;fontFamily=Verdana;" vertex="1" parent="ldAZ7kthjkq9QqOqfzTh-157">
          <mxGeometry width="30" height="30" as="geometry">
            <mxRectangle width="30" height="30" as="alternateBounds" />
          </mxGeometry>
        </mxCell>
        <mxCell id="ldAZ7kthjkq9QqOqfzTh-159" value="prontuario_id BIGINT" style="shape=partialRectangle;overflow=hidden;connectable=0;fillColor=none;top=0;left=0;bottom=0;right=0;align=left;spacingLeft=6;fontSize=15;fontFamily=Verdana;" vertex="1" parent="ldAZ7kthjkq9QqOqfzTh-157">
          <mxGeometry x="30" width="240" height="30" as="geometry">
            <mxRectangle width="240" height="30" as="alternateBounds" />
          </mxGeometry>
        </mxCell>
        <mxCell id="ldAZ7kthjkq9QqOqfzTh-160" value="" style="shape=partialRectangle;collapsible=0;dropTarget=0;pointerEvents=0;fillColor=none;points=[[0,0.5],[1,0.5]];portConstraint=eastwest;top=0;left=0;right=0;bottom=0;fontSize=15;fontFamily=Verdana;" vertex="1" parent="ldAZ7kthjkq9QqOqfzTh-153">
          <mxGeometry y="90" width="270" height="30" as="geometry" />
        </mxCell>
        <mxCell id="ldAZ7kthjkq9QqOqfzTh-161" value="" style="shape=partialRectangle;overflow=hidden;connectable=0;fillColor=none;top=0;left=0;bottom=0;right=0;fontSize=15;fontFamily=Verdana;" vertex="1" parent="ldAZ7kthjkq9QqOqfzTh-160">
          <mxGeometry width="30" height="30" as="geometry">
            <mxRectangle width="30" height="30" as="alternateBounds" />
          </mxGeometry>
        </mxCell>
        <mxCell id="ldAZ7kthjkq9QqOqfzTh-162" value="medicamento VARCHAR(255)" style="shape=partialRectangle;overflow=hidden;connectable=0;fillColor=none;top=0;left=0;bottom=0;right=0;align=left;spacingLeft=6;fontSize=15;fontFamily=Verdana;" vertex="1" parent="ldAZ7kthjkq9QqOqfzTh-160">
          <mxGeometry x="30" width="240" height="30" as="geometry">
            <mxRectangle width="240" height="30" as="alternateBounds" />
          </mxGeometry>
        </mxCell>
        <mxCell id="ldAZ7kthjkq9QqOqfzTh-163" value="" style="shape=partialRectangle;collapsible=0;dropTarget=0;pointerEvents=0;fillColor=none;points=[[0,0.5],[1,0.5]];portConstraint=eastwest;top=0;left=0;right=0;bottom=0;fontSize=15;fontFamily=Verdana;" vertex="1" parent="ldAZ7kthjkq9QqOqfzTh-153">
          <mxGeometry y="120" width="270" height="30" as="geometry" />
        </mxCell>
        <mxCell id="ldAZ7kthjkq9QqOqfzTh-164" value="" style="shape=partialRectangle;overflow=hidden;connectable=0;fillColor=none;top=0;left=0;bottom=0;right=0;fontSize=15;fontFamily=Verdana;" vertex="1" parent="ldAZ7kthjkq9QqOqfzTh-163">
          <mxGeometry width="30" height="30" as="geometry">
            <mxRectangle width="30" height="30" as="alternateBounds" />
          </mxGeometry>
        </mxCell>
        <mxCell id="ldAZ7kthjkq9QqOqfzTh-165" value="dosagem VARCHAR(50)" style="shape=partialRectangle;overflow=hidden;connectable=0;fillColor=none;top=0;left=0;bottom=0;right=0;align=left;spacingLeft=6;fontSize=15;fontFamily=Verdana;" vertex="1" parent="ldAZ7kthjkq9QqOqfzTh-163">
          <mxGeometry x="30" width="240" height="30" as="geometry">
            <mxRectangle width="240" height="30" as="alternateBounds" />
          </mxGeometry>
        </mxCell>
        <mxCell id="ldAZ7kthjkq9QqOqfzTh-166" value="" style="shape=partialRectangle;collapsible=0;dropTarget=0;pointerEvents=0;fillColor=none;points=[[0,0.5],[1,0.5]];portConstraint=eastwest;top=0;left=0;right=0;bottom=0;fontSize=15;fontFamily=Verdana;" vertex="1" parent="ldAZ7kthjkq9QqOqfzTh-153">
          <mxGeometry y="150" width="270" height="30" as="geometry" />
        </mxCell>
        <mxCell id="ldAZ7kthjkq9QqOqfzTh-167" value="" style="shape=partialRectangle;overflow=hidden;connectable=0;fillColor=none;top=0;left=0;bottom=0;right=0;fontSize=15;fontFamily=Verdana;" vertex="1" parent="ldAZ7kthjkq9QqOqfzTh-166">
          <mxGeometry width="30" height="30" as="geometry">
            <mxRectangle width="30" height="30" as="alternateBounds" />
          </mxGeometry>
        </mxCell>
        <mxCell id="ldAZ7kthjkq9QqOqfzTh-168" value="instrucoes TEXT" style="shape=partialRectangle;overflow=hidden;connectable=0;fillColor=none;top=0;left=0;bottom=0;right=0;align=left;spacingLeft=6;fontSize=15;fontFamily=Verdana;" vertex="1" parent="ldAZ7kthjkq9QqOqfzTh-166">
          <mxGeometry x="30" width="240" height="30" as="geometry">
            <mxRectangle width="240" height="30" as="alternateBounds" />
          </mxGeometry>
        </mxCell>
        <mxCell id="ldAZ7kthjkq9QqOqfzTh-169" value="internacao" style="shape=table;startSize=30;container=1;collapsible=1;childLayout=tableLayout;fixedRows=1;rowLines=0;fontStyle=1;align=center;resizeLast=1;fontSize=15;fontFamily=Verdana;" vertex="1" parent="1">
          <mxGeometry x="1291" y="-530" width="230" height="240" as="geometry" />
        </mxCell>
        <mxCell id="ldAZ7kthjkq9QqOqfzTh-170" value="" style="shape=partialRectangle;collapsible=0;dropTarget=0;pointerEvents=0;fillColor=none;points=[[0,0.5],[1,0.5]];portConstraint=eastwest;top=0;left=0;right=0;bottom=1;fontSize=15;fontFamily=Verdana;" vertex="1" parent="ldAZ7kthjkq9QqOqfzTh-169">
          <mxGeometry y="30" width="230" height="30" as="geometry" />
        </mxCell>
        <mxCell id="ldAZ7kthjkq9QqOqfzTh-171" value="PK" style="shape=partialRectangle;overflow=hidden;connectable=0;fillColor=none;top=0;left=0;bottom=0;right=0;fontStyle=1;fontSize=15;fontFamily=Verdana;" vertex="1" parent="ldAZ7kthjkq9QqOqfzTh-170">
          <mxGeometry width="30" height="30" as="geometry">
            <mxRectangle width="30" height="30" as="alternateBounds" />
          </mxGeometry>
        </mxCell>
        <mxCell id="ldAZ7kthjkq9QqOqfzTh-172" value="id BIGINT" style="shape=partialRectangle;overflow=hidden;connectable=0;fillColor=none;top=0;left=0;bottom=0;right=0;align=left;spacingLeft=6;fontStyle=5;fontSize=15;fontFamily=Verdana;" vertex="1" parent="ldAZ7kthjkq9QqOqfzTh-170">
          <mxGeometry x="30" width="200" height="30" as="geometry">
            <mxRectangle width="200" height="30" as="alternateBounds" />
          </mxGeometry>
        </mxCell>
        <mxCell id="ldAZ7kthjkq9QqOqfzTh-173" value="" style="shape=partialRectangle;collapsible=0;dropTarget=0;pointerEvents=0;fillColor=none;points=[[0,0.5],[1,0.5]];portConstraint=eastwest;top=0;left=0;right=0;bottom=0;fontSize=15;fontFamily=Verdana;" vertex="1" parent="ldAZ7kthjkq9QqOqfzTh-169">
          <mxGeometry y="60" width="230" height="30" as="geometry" />
        </mxCell>
        <mxCell id="ldAZ7kthjkq9QqOqfzTh-174" value="FK" style="shape=partialRectangle;overflow=hidden;connectable=0;fillColor=none;top=0;left=0;bottom=0;right=0;fontSize=15;fontFamily=Verdana;" vertex="1" parent="ldAZ7kthjkq9QqOqfzTh-173">
          <mxGeometry width="30" height="30" as="geometry">
            <mxRectangle width="30" height="30" as="alternateBounds" />
          </mxGeometry>
        </mxCell>
        <mxCell id="ldAZ7kthjkq9QqOqfzTh-175" value="paciente_id BIGINT" style="shape=partialRectangle;overflow=hidden;connectable=0;fillColor=none;top=0;left=0;bottom=0;right=0;align=left;spacingLeft=6;fontSize=15;fontFamily=Verdana;" vertex="1" parent="ldAZ7kthjkq9QqOqfzTh-173">
          <mxGeometry x="30" width="200" height="30" as="geometry">
            <mxRectangle width="200" height="30" as="alternateBounds" />
          </mxGeometry>
        </mxCell>
        <mxCell id="ldAZ7kthjkq9QqOqfzTh-176" value="" style="shape=partialRectangle;collapsible=0;dropTarget=0;pointerEvents=0;fillColor=none;points=[[0,0.5],[1,0.5]];portConstraint=eastwest;top=0;left=0;right=0;bottom=0;fontSize=15;fontFamily=Verdana;" vertex="1" parent="ldAZ7kthjkq9QqOqfzTh-169">
          <mxGeometry y="90" width="230" height="30" as="geometry" />
        </mxCell>
        <mxCell id="ldAZ7kthjkq9QqOqfzTh-177" value="FK" style="shape=partialRectangle;overflow=hidden;connectable=0;fillColor=none;top=0;left=0;bottom=0;right=0;fontSize=15;fontFamily=Verdana;" vertex="1" parent="ldAZ7kthjkq9QqOqfzTh-176">
          <mxGeometry width="30" height="30" as="geometry">
            <mxRectangle width="30" height="30" as="alternateBounds" />
          </mxGeometry>
        </mxCell>
        <mxCell id="ldAZ7kthjkq9QqOqfzTh-178" value="profissional_id BIGINT" style="shape=partialRectangle;overflow=hidden;connectable=0;fillColor=none;top=0;left=0;bottom=0;right=0;align=left;spacingLeft=6;fontSize=15;fontFamily=Verdana;" vertex="1" parent="ldAZ7kthjkq9QqOqfzTh-176">
          <mxGeometry x="30" width="200" height="30" as="geometry">
            <mxRectangle width="200" height="30" as="alternateBounds" />
          </mxGeometry>
        </mxCell>
        <mxCell id="ldAZ7kthjkq9QqOqfzTh-179" value="" style="shape=partialRectangle;collapsible=0;dropTarget=0;pointerEvents=0;fillColor=none;points=[[0,0.5],[1,0.5]];portConstraint=eastwest;top=0;left=0;right=0;bottom=0;fontSize=15;fontFamily=Verdana;" vertex="1" parent="ldAZ7kthjkq9QqOqfzTh-169">
          <mxGeometry y="120" width="230" height="30" as="geometry" />
        </mxCell>
        <mxCell id="ldAZ7kthjkq9QqOqfzTh-180" value="FK" style="shape=partialRectangle;overflow=hidden;connectable=0;fillColor=none;top=0;left=0;bottom=0;right=0;fontSize=15;fontFamily=Verdana;" vertex="1" parent="ldAZ7kthjkq9QqOqfzTh-179">
          <mxGeometry width="30" height="30" as="geometry">
            <mxRectangle width="30" height="30" as="alternateBounds" />
          </mxGeometry>
        </mxCell>
        <mxCell id="ldAZ7kthjkq9QqOqfzTh-181" value="leito_id BIGINT" style="shape=partialRectangle;overflow=hidden;connectable=0;fillColor=none;top=0;left=0;bottom=0;right=0;align=left;spacingLeft=6;fontSize=15;fontFamily=Verdana;" vertex="1" parent="ldAZ7kthjkq9QqOqfzTh-179">
          <mxGeometry x="30" width="200" height="30" as="geometry">
            <mxRectangle width="200" height="30" as="alternateBounds" />
          </mxGeometry>
        </mxCell>
        <mxCell id="ldAZ7kthjkq9QqOqfzTh-182" value="" style="shape=partialRectangle;collapsible=0;dropTarget=0;pointerEvents=0;fillColor=none;points=[[0,0.5],[1,0.5]];portConstraint=eastwest;top=0;left=0;right=0;bottom=0;fontSize=15;fontFamily=Verdana;" vertex="1" parent="ldAZ7kthjkq9QqOqfzTh-169">
          <mxGeometry y="150" width="230" height="30" as="geometry" />
        </mxCell>
        <mxCell id="ldAZ7kthjkq9QqOqfzTh-183" value="" style="shape=partialRectangle;overflow=hidden;connectable=0;fillColor=none;top=0;left=0;bottom=0;right=0;fontSize=15;fontFamily=Verdana;" vertex="1" parent="ldAZ7kthjkq9QqOqfzTh-182">
          <mxGeometry width="30" height="30" as="geometry">
            <mxRectangle width="30" height="30" as="alternateBounds" />
          </mxGeometry>
        </mxCell>
        <mxCell id="ldAZ7kthjkq9QqOqfzTh-184" value="data_entrada DATETIME" style="shape=partialRectangle;overflow=hidden;connectable=0;fillColor=none;top=0;left=0;bottom=0;right=0;align=left;spacingLeft=6;fontSize=15;fontFamily=Verdana;" vertex="1" parent="ldAZ7kthjkq9QqOqfzTh-182">
          <mxGeometry x="30" width="200" height="30" as="geometry">
            <mxRectangle width="200" height="30" as="alternateBounds" />
          </mxGeometry>
        </mxCell>
        <mxCell id="ldAZ7kthjkq9QqOqfzTh-185" value="" style="shape=partialRectangle;collapsible=0;dropTarget=0;pointerEvents=0;fillColor=none;points=[[0,0.5],[1,0.5]];portConstraint=eastwest;top=0;left=0;right=0;bottom=0;fontSize=15;fontFamily=Verdana;" vertex="1" parent="ldAZ7kthjkq9QqOqfzTh-169">
          <mxGeometry y="180" width="230" height="30" as="geometry" />
        </mxCell>
        <mxCell id="ldAZ7kthjkq9QqOqfzTh-186" value="" style="shape=partialRectangle;overflow=hidden;connectable=0;fillColor=none;top=0;left=0;bottom=0;right=0;fontSize=15;fontFamily=Verdana;" vertex="1" parent="ldAZ7kthjkq9QqOqfzTh-185">
          <mxGeometry width="30" height="30" as="geometry">
            <mxRectangle width="30" height="30" as="alternateBounds" />
          </mxGeometry>
        </mxCell>
        <mxCell id="ldAZ7kthjkq9QqOqfzTh-187" value="data_saida DATETIME" style="shape=partialRectangle;overflow=hidden;connectable=0;fillColor=none;top=0;left=0;bottom=0;right=0;align=left;spacingLeft=6;fontSize=15;fontFamily=Verdana;" vertex="1" parent="ldAZ7kthjkq9QqOqfzTh-185">
          <mxGeometry x="30" width="200" height="30" as="geometry">
            <mxRectangle width="200" height="30" as="alternateBounds" />
          </mxGeometry>
        </mxCell>
        <mxCell id="ldAZ7kthjkq9QqOqfzTh-188" value="" style="shape=partialRectangle;collapsible=0;dropTarget=0;pointerEvents=0;fillColor=none;points=[[0,0.5],[1,0.5]];portConstraint=eastwest;top=0;left=0;right=0;bottom=0;fontSize=15;fontFamily=Verdana;" vertex="1" parent="ldAZ7kthjkq9QqOqfzTh-169">
          <mxGeometry y="210" width="230" height="30" as="geometry" />
        </mxCell>
        <mxCell id="ldAZ7kthjkq9QqOqfzTh-189" value="" style="shape=partialRectangle;overflow=hidden;connectable=0;fillColor=none;top=0;left=0;bottom=0;right=0;fontSize=15;fontFamily=Verdana;" vertex="1" parent="ldAZ7kthjkq9QqOqfzTh-188">
          <mxGeometry width="30" height="30" as="geometry">
            <mxRectangle width="30" height="30" as="alternateBounds" />
          </mxGeometry>
        </mxCell>
        <mxCell id="ldAZ7kthjkq9QqOqfzTh-190" value="diagnostico TEXT" style="shape=partialRectangle;overflow=hidden;connectable=0;fillColor=none;top=0;left=0;bottom=0;right=0;align=left;spacingLeft=6;fontSize=15;fontFamily=Verdana;" vertex="1" parent="ldAZ7kthjkq9QqOqfzTh-188">
          <mxGeometry x="30" width="200" height="30" as="geometry">
            <mxRectangle width="200" height="30" as="alternateBounds" />
          </mxGeometry>
        </mxCell>
        <mxCell id="ldAZ7kthjkq9QqOqfzTh-191" value="leito" style="shape=table;startSize=30;container=1;collapsible=1;childLayout=tableLayout;fixedRows=1;rowLines=0;fontStyle=1;align=center;resizeLast=1;fontSize=15;fontFamily=Verdana;" vertex="1" parent="1">
          <mxGeometry x="1570" y="-520" width="240" height="220" as="geometry" />
        </mxCell>
        <mxCell id="ldAZ7kthjkq9QqOqfzTh-192" value="" style="shape=partialRectangle;collapsible=0;dropTarget=0;pointerEvents=0;fillColor=none;points=[[0,0.5],[1,0.5]];portConstraint=eastwest;top=0;left=0;right=0;bottom=1;fontSize=15;fontFamily=Verdana;" vertex="1" parent="ldAZ7kthjkq9QqOqfzTh-191">
          <mxGeometry y="30" width="240" height="30" as="geometry" />
        </mxCell>
        <mxCell id="ldAZ7kthjkq9QqOqfzTh-193" value="PK" style="shape=partialRectangle;overflow=hidden;connectable=0;fillColor=none;top=0;left=0;bottom=0;right=0;fontStyle=1;fontSize=15;fontFamily=Verdana;" vertex="1" parent="ldAZ7kthjkq9QqOqfzTh-192">
          <mxGeometry width="30" height="30" as="geometry">
            <mxRectangle width="30" height="30" as="alternateBounds" />
          </mxGeometry>
        </mxCell>
        <mxCell id="ldAZ7kthjkq9QqOqfzTh-194" value="id BIGINT" style="shape=partialRectangle;overflow=hidden;connectable=0;fillColor=none;top=0;left=0;bottom=0;right=0;align=left;spacingLeft=6;fontStyle=5;fontSize=15;fontFamily=Verdana;" vertex="1" parent="ldAZ7kthjkq9QqOqfzTh-192">
          <mxGeometry x="30" width="210" height="30" as="geometry">
            <mxRectangle width="210" height="30" as="alternateBounds" />
          </mxGeometry>
        </mxCell>
        <mxCell id="ldAZ7kthjkq9QqOqfzTh-195" value="" style="shape=partialRectangle;collapsible=0;dropTarget=0;pointerEvents=0;fillColor=none;points=[[0,0.5],[1,0.5]];portConstraint=eastwest;top=0;left=0;right=0;bottom=0;fontSize=15;fontFamily=Verdana;" vertex="1" parent="ldAZ7kthjkq9QqOqfzTh-191">
          <mxGeometry y="60" width="240" height="30" as="geometry" />
        </mxCell>
        <mxCell id="ldAZ7kthjkq9QqOqfzTh-196" value="FK" style="shape=partialRectangle;overflow=hidden;connectable=0;fillColor=none;top=0;left=0;bottom=0;right=0;fontSize=15;fontFamily=Verdana;" vertex="1" parent="ldAZ7kthjkq9QqOqfzTh-195">
          <mxGeometry width="30" height="30" as="geometry">
            <mxRectangle width="30" height="30" as="alternateBounds" />
          </mxGeometry>
        </mxCell>
        <mxCell id="ldAZ7kthjkq9QqOqfzTh-197" value="unidade_saude_id BIGINT" style="shape=partialRectangle;overflow=hidden;connectable=0;fillColor=none;top=0;left=0;bottom=0;right=0;align=left;spacingLeft=6;fontSize=15;fontFamily=Verdana;" vertex="1" parent="ldAZ7kthjkq9QqOqfzTh-195">
          <mxGeometry x="30" width="210" height="30" as="geometry">
            <mxRectangle width="210" height="30" as="alternateBounds" />
          </mxGeometry>
        </mxCell>
        <mxCell id="ldAZ7kthjkq9QqOqfzTh-198" value="" style="shape=partialRectangle;collapsible=0;dropTarget=0;pointerEvents=0;fillColor=none;points=[[0,0.5],[1,0.5]];portConstraint=eastwest;top=0;left=0;right=0;bottom=0;fontSize=15;fontFamily=Verdana;" vertex="1" parent="ldAZ7kthjkq9QqOqfzTh-191">
          <mxGeometry y="90" width="240" height="40" as="geometry" />
        </mxCell>
        <mxCell id="ldAZ7kthjkq9QqOqfzTh-199" value="FK" style="shape=partialRectangle;overflow=hidden;connectable=0;fillColor=none;top=0;left=0;bottom=0;right=0;fontSize=15;fontFamily=Verdana;" vertex="1" parent="ldAZ7kthjkq9QqOqfzTh-198">
          <mxGeometry width="30" height="40" as="geometry">
            <mxRectangle width="30" height="40" as="alternateBounds" />
          </mxGeometry>
        </mxCell>
        <mxCell id="ldAZ7kthjkq9QqOqfzTh-200" value="profissional_id BIGINT" style="shape=partialRectangle;overflow=hidden;connectable=0;fillColor=none;top=0;left=0;bottom=0;right=0;align=left;spacingLeft=6;fontSize=15;fontFamily=Verdana;" vertex="1" parent="ldAZ7kthjkq9QqOqfzTh-198">
          <mxGeometry x="30" width="210" height="40" as="geometry">
            <mxRectangle width="210" height="40" as="alternateBounds" />
          </mxGeometry>
        </mxCell>
        <mxCell id="ldAZ7kthjkq9QqOqfzTh-201" value="" style="shape=partialRectangle;collapsible=0;dropTarget=0;pointerEvents=0;fillColor=none;points=[[0,0.5],[1,0.5]];portConstraint=eastwest;top=0;left=0;right=0;bottom=0;fontSize=15;fontFamily=Verdana;" vertex="1" parent="ldAZ7kthjkq9QqOqfzTh-191">
          <mxGeometry y="130" width="240" height="30" as="geometry" />
        </mxCell>
        <mxCell id="ldAZ7kthjkq9QqOqfzTh-202" value="FK" style="shape=partialRectangle;overflow=hidden;connectable=0;fillColor=none;top=0;left=0;bottom=0;right=0;fontSize=15;fontFamily=Verdana;" vertex="1" parent="ldAZ7kthjkq9QqOqfzTh-201">
          <mxGeometry width="30" height="30" as="geometry">
            <mxRectangle width="30" height="30" as="alternateBounds" />
          </mxGeometry>
        </mxCell>
        <mxCell id="ldAZ7kthjkq9QqOqfzTh-203" value="paciente_id BIGINT" style="shape=partialRectangle;overflow=hidden;connectable=0;fillColor=none;top=0;left=0;bottom=0;right=0;align=left;spacingLeft=6;fontSize=15;fontFamily=Verdana;" vertex="1" parent="ldAZ7kthjkq9QqOqfzTh-201">
          <mxGeometry x="30" width="210" height="30" as="geometry">
            <mxRectangle width="210" height="30" as="alternateBounds" />
          </mxGeometry>
        </mxCell>
        <mxCell id="ldAZ7kthjkq9QqOqfzTh-204" value="" style="shape=partialRectangle;collapsible=0;dropTarget=0;pointerEvents=0;fillColor=none;points=[[0,0.5],[1,0.5]];portConstraint=eastwest;top=0;left=0;right=0;bottom=0;fontSize=15;fontFamily=Verdana;" vertex="1" parent="ldAZ7kthjkq9QqOqfzTh-191">
          <mxGeometry y="160" width="240" height="30" as="geometry" />
        </mxCell>
        <mxCell id="ldAZ7kthjkq9QqOqfzTh-205" value="" style="shape=partialRectangle;overflow=hidden;connectable=0;fillColor=none;top=0;left=0;bottom=0;right=0;fontSize=15;fontFamily=Verdana;" vertex="1" parent="ldAZ7kthjkq9QqOqfzTh-204">
          <mxGeometry width="30" height="30" as="geometry">
            <mxRectangle width="30" height="30" as="alternateBounds" />
          </mxGeometry>
        </mxCell>
        <mxCell id="ldAZ7kthjkq9QqOqfzTh-206" value="tipo_leito ENUM(...)" style="shape=partialRectangle;overflow=hidden;connectable=0;fillColor=none;top=0;left=0;bottom=0;right=0;align=left;spacingLeft=6;fontSize=15;fontFamily=Verdana;" vertex="1" parent="ldAZ7kthjkq9QqOqfzTh-204">
          <mxGeometry x="30" width="210" height="30" as="geometry">
            <mxRectangle width="210" height="30" as="alternateBounds" />
          </mxGeometry>
        </mxCell>
        <mxCell id="ldAZ7kthjkq9QqOqfzTh-207" value="" style="shape=partialRectangle;collapsible=0;dropTarget=0;pointerEvents=0;fillColor=none;points=[[0,0.5],[1,0.5]];portConstraint=eastwest;top=0;left=0;right=0;bottom=0;fontSize=15;fontFamily=Verdana;" vertex="1" parent="ldAZ7kthjkq9QqOqfzTh-191">
          <mxGeometry y="190" width="240" height="30" as="geometry" />
        </mxCell>
        <mxCell id="ldAZ7kthjkq9QqOqfzTh-208" value="" style="shape=partialRectangle;overflow=hidden;connectable=0;fillColor=none;top=0;left=0;bottom=0;right=0;fontSize=15;fontFamily=Verdana;" vertex="1" parent="ldAZ7kthjkq9QqOqfzTh-207">
          <mxGeometry width="30" height="30" as="geometry">
            <mxRectangle width="30" height="30" as="alternateBounds" />
          </mxGeometry>
        </mxCell>
        <mxCell id="ldAZ7kthjkq9QqOqfzTh-209" value="status ENUM(...)" style="shape=partialRectangle;overflow=hidden;connectable=0;fillColor=none;top=0;left=0;bottom=0;right=0;align=left;spacingLeft=6;fontSize=15;fontFamily=Verdana;" vertex="1" parent="ldAZ7kthjkq9QqOqfzTh-207">
          <mxGeometry x="30" width="210" height="30" as="geometry">
            <mxRectangle width="210" height="30" as="alternateBounds" />
          </mxGeometry>
        </mxCell>
        <mxCell id="ldAZ7kthjkq9QqOqfzTh-210" value="relatorio_financeiro" style="shape=table;startSize=30;container=1;collapsible=1;childLayout=tableLayout;fixedRows=1;rowLines=0;fontStyle=1;align=center;resizeLast=1;fontSize=15;fontFamily=Verdana;" vertex="1" parent="1">
          <mxGeometry x="1260" y="-185" width="250" height="180" as="geometry" />
        </mxCell>
        <mxCell id="ldAZ7kthjkq9QqOqfzTh-211" value="" style="shape=partialRectangle;collapsible=0;dropTarget=0;pointerEvents=0;fillColor=none;points=[[0,0.5],[1,0.5]];portConstraint=eastwest;top=0;left=0;right=0;bottom=1;fontSize=15;fontFamily=Verdana;" vertex="1" parent="ldAZ7kthjkq9QqOqfzTh-210">
          <mxGeometry y="30" width="250" height="30" as="geometry" />
        </mxCell>
        <mxCell id="ldAZ7kthjkq9QqOqfzTh-212" value="PK" style="shape=partialRectangle;overflow=hidden;connectable=0;fillColor=none;top=0;left=0;bottom=0;right=0;fontStyle=1;fontSize=15;fontFamily=Verdana;" vertex="1" parent="ldAZ7kthjkq9QqOqfzTh-211">
          <mxGeometry width="30" height="30" as="geometry">
            <mxRectangle width="30" height="30" as="alternateBounds" />
          </mxGeometry>
        </mxCell>
        <mxCell id="ldAZ7kthjkq9QqOqfzTh-213" value="id BIGINT" style="shape=partialRectangle;overflow=hidden;connectable=0;fillColor=none;top=0;left=0;bottom=0;right=0;align=left;spacingLeft=6;fontStyle=5;fontSize=15;fontFamily=Verdana;" vertex="1" parent="ldAZ7kthjkq9QqOqfzTh-211">
          <mxGeometry x="30" width="220" height="30" as="geometry">
            <mxRectangle width="220" height="30" as="alternateBounds" />
          </mxGeometry>
        </mxCell>
        <mxCell id="ldAZ7kthjkq9QqOqfzTh-214" value="" style="shape=partialRectangle;collapsible=0;dropTarget=0;pointerEvents=0;fillColor=none;points=[[0,0.5],[1,0.5]];portConstraint=eastwest;top=0;left=0;right=0;bottom=0;fontSize=15;fontFamily=Verdana;" vertex="1" parent="ldAZ7kthjkq9QqOqfzTh-210">
          <mxGeometry y="60" width="250" height="30" as="geometry" />
        </mxCell>
        <mxCell id="ldAZ7kthjkq9QqOqfzTh-215" value="FK" style="shape=partialRectangle;overflow=hidden;connectable=0;fillColor=none;top=0;left=0;bottom=0;right=0;fontSize=15;fontFamily=Verdana;" vertex="1" parent="ldAZ7kthjkq9QqOqfzTh-214">
          <mxGeometry width="30" height="30" as="geometry">
            <mxRectangle width="30" height="30" as="alternateBounds" />
          </mxGeometry>
        </mxCell>
        <mxCell id="ldAZ7kthjkq9QqOqfzTh-216" value="unidade_saude_id BIGINT" style="shape=partialRectangle;overflow=hidden;connectable=0;fillColor=none;top=0;left=0;bottom=0;right=0;align=left;spacingLeft=6;fontSize=15;fontFamily=Verdana;" vertex="1" parent="ldAZ7kthjkq9QqOqfzTh-214">
          <mxGeometry x="30" width="220" height="30" as="geometry">
            <mxRectangle width="220" height="30" as="alternateBounds" />
          </mxGeometry>
        </mxCell>
        <mxCell id="ldAZ7kthjkq9QqOqfzTh-217" value="" style="shape=partialRectangle;collapsible=0;dropTarget=0;pointerEvents=0;fillColor=none;points=[[0,0.5],[1,0.5]];portConstraint=eastwest;top=0;left=0;right=0;bottom=0;fontSize=15;fontFamily=Verdana;" vertex="1" parent="ldAZ7kthjkq9QqOqfzTh-210">
          <mxGeometry y="90" width="250" height="30" as="geometry" />
        </mxCell>
        <mxCell id="ldAZ7kthjkq9QqOqfzTh-218" value="" style="shape=partialRectangle;overflow=hidden;connectable=0;fillColor=none;top=0;left=0;bottom=0;right=0;fontSize=15;fontFamily=Verdana;" vertex="1" parent="ldAZ7kthjkq9QqOqfzTh-217">
          <mxGeometry width="30" height="30" as="geometry">
            <mxRectangle width="30" height="30" as="alternateBounds" />
          </mxGeometry>
        </mxCell>
        <mxCell id="ldAZ7kthjkq9QqOqfzTh-219" value="descricao TEXT" style="shape=partialRectangle;overflow=hidden;connectable=0;fillColor=none;top=0;left=0;bottom=0;right=0;align=left;spacingLeft=6;fontSize=15;fontFamily=Verdana;" vertex="1" parent="ldAZ7kthjkq9QqOqfzTh-217">
          <mxGeometry x="30" width="220" height="30" as="geometry">
            <mxRectangle width="220" height="30" as="alternateBounds" />
          </mxGeometry>
        </mxCell>
        <mxCell id="ldAZ7kthjkq9QqOqfzTh-220" value="" style="shape=partialRectangle;collapsible=0;dropTarget=0;pointerEvents=0;fillColor=none;points=[[0,0.5],[1,0.5]];portConstraint=eastwest;top=0;left=0;right=0;bottom=0;fontSize=15;fontFamily=Verdana;" vertex="1" parent="ldAZ7kthjkq9QqOqfzTh-210">
          <mxGeometry y="120" width="250" height="30" as="geometry" />
        </mxCell>
        <mxCell id="ldAZ7kthjkq9QqOqfzTh-221" value="" style="shape=partialRectangle;overflow=hidden;connectable=0;fillColor=none;top=0;left=0;bottom=0;right=0;fontSize=15;fontFamily=Verdana;" vertex="1" parent="ldAZ7kthjkq9QqOqfzTh-220">
          <mxGeometry width="30" height="30" as="geometry">
            <mxRectangle width="30" height="30" as="alternateBounds" />
          </mxGeometry>
        </mxCell>
        <mxCell id="ldAZ7kthjkq9QqOqfzTh-222" value="valor DECIMAL(10,2)" style="shape=partialRectangle;overflow=hidden;connectable=0;fillColor=none;top=0;left=0;bottom=0;right=0;align=left;spacingLeft=6;fontSize=15;fontFamily=Verdana;" vertex="1" parent="ldAZ7kthjkq9QqOqfzTh-220">
          <mxGeometry x="30" width="220" height="30" as="geometry">
            <mxRectangle width="220" height="30" as="alternateBounds" />
          </mxGeometry>
        </mxCell>
        <mxCell id="ldAZ7kthjkq9QqOqfzTh-223" value="" style="shape=partialRectangle;collapsible=0;dropTarget=0;pointerEvents=0;fillColor=none;points=[[0,0.5],[1,0.5]];portConstraint=eastwest;top=0;left=0;right=0;bottom=0;fontSize=15;fontFamily=Verdana;" vertex="1" parent="ldAZ7kthjkq9QqOqfzTh-210">
          <mxGeometry y="150" width="250" height="30" as="geometry" />
        </mxCell>
        <mxCell id="ldAZ7kthjkq9QqOqfzTh-224" value="" style="shape=partialRectangle;overflow=hidden;connectable=0;fillColor=none;top=0;left=0;bottom=0;right=0;fontSize=15;fontFamily=Verdana;" vertex="1" parent="ldAZ7kthjkq9QqOqfzTh-223">
          <mxGeometry width="30" height="30" as="geometry">
            <mxRectangle width="30" height="30" as="alternateBounds" />
          </mxGeometry>
        </mxCell>
        <mxCell id="ldAZ7kthjkq9QqOqfzTh-225" value="data_registro DATETIME" style="shape=partialRectangle;overflow=hidden;connectable=0;fillColor=none;top=0;left=0;bottom=0;right=0;align=left;spacingLeft=6;fontSize=15;fontFamily=Verdana;" vertex="1" parent="ldAZ7kthjkq9QqOqfzTh-223">
          <mxGeometry x="30" width="220" height="30" as="geometry">
            <mxRectangle width="220" height="30" as="alternateBounds" />
          </mxGeometry>
        </mxCell>
        <mxCell id="ldAZ7kthjkq9QqOqfzTh-226" value="suprimentos" style="shape=table;startSize=30;container=1;collapsible=1;childLayout=tableLayout;fixedRows=1;rowLines=0;fontStyle=1;align=center;resizeLast=1;fontSize=15;fontFamily=Verdana;" vertex="1" parent="1">
          <mxGeometry x="880" y="-210" width="250" height="210" as="geometry" />
        </mxCell>
        <mxCell id="ldAZ7kthjkq9QqOqfzTh-227" value="" style="shape=partialRectangle;collapsible=0;dropTarget=0;pointerEvents=0;fillColor=none;points=[[0,0.5],[1,0.5]];portConstraint=eastwest;top=0;left=0;right=0;bottom=1;fontFamily=Verdana;fontSize=15;" vertex="1" parent="ldAZ7kthjkq9QqOqfzTh-226">
          <mxGeometry y="30" width="250" height="30" as="geometry" />
        </mxCell>
        <mxCell id="ldAZ7kthjkq9QqOqfzTh-228" value="PK" style="shape=partialRectangle;overflow=hidden;connectable=0;fillColor=none;top=0;left=0;bottom=0;right=0;fontStyle=1;fontSize=15;fontFamily=Verdana;" vertex="1" parent="ldAZ7kthjkq9QqOqfzTh-227">
          <mxGeometry width="30" height="30" as="geometry">
            <mxRectangle width="30" height="30" as="alternateBounds" />
          </mxGeometry>
        </mxCell>
        <mxCell id="ldAZ7kthjkq9QqOqfzTh-229" value="id BIGINT" style="shape=partialRectangle;overflow=hidden;connectable=0;fillColor=none;top=0;left=0;bottom=0;right=0;align=left;spacingLeft=6;fontStyle=5;fontSize=15;fontFamily=Verdana;" vertex="1" parent="ldAZ7kthjkq9QqOqfzTh-227">
          <mxGeometry x="30" width="220" height="30" as="geometry">
            <mxRectangle width="220" height="30" as="alternateBounds" />
          </mxGeometry>
        </mxCell>
        <mxCell id="ldAZ7kthjkq9QqOqfzTh-230" value="" style="shape=partialRectangle;collapsible=0;dropTarget=0;pointerEvents=0;fillColor=none;points=[[0,0.5],[1,0.5]];portConstraint=eastwest;top=0;left=0;right=0;bottom=0;fontSize=15;fontFamily=Verdana;" vertex="1" parent="ldAZ7kthjkq9QqOqfzTh-226">
          <mxGeometry y="60" width="250" height="30" as="geometry" />
        </mxCell>
        <mxCell id="ldAZ7kthjkq9QqOqfzTh-231" value="FK" style="shape=partialRectangle;overflow=hidden;connectable=0;fillColor=none;top=0;left=0;bottom=0;right=0;fontSize=15;fontFamily=Verdana;" vertex="1" parent="ldAZ7kthjkq9QqOqfzTh-230">
          <mxGeometry width="30" height="30" as="geometry">
            <mxRectangle width="30" height="30" as="alternateBounds" />
          </mxGeometry>
        </mxCell>
        <mxCell id="ldAZ7kthjkq9QqOqfzTh-232" value="unidade_saude_id BIGINT" style="shape=partialRectangle;overflow=hidden;connectable=0;fillColor=none;top=0;left=0;bottom=0;right=0;align=left;spacingLeft=6;fontSize=15;fontFamily=Verdana;" vertex="1" parent="ldAZ7kthjkq9QqOqfzTh-230">
          <mxGeometry x="30" width="220" height="30" as="geometry">
            <mxRectangle width="220" height="30" as="alternateBounds" />
          </mxGeometry>
        </mxCell>
        <mxCell id="ldAZ7kthjkq9QqOqfzTh-233" value="" style="shape=partialRectangle;collapsible=0;dropTarget=0;pointerEvents=0;fillColor=none;points=[[0,0.5],[1,0.5]];portConstraint=eastwest;top=0;left=0;right=0;bottom=0;fontSize=15;fontFamily=Verdana;" vertex="1" parent="ldAZ7kthjkq9QqOqfzTh-226">
          <mxGeometry y="90" width="250" height="30" as="geometry" />
        </mxCell>
        <mxCell id="ldAZ7kthjkq9QqOqfzTh-234" value="" style="shape=partialRectangle;overflow=hidden;connectable=0;fillColor=none;top=0;left=0;bottom=0;right=0;fontSize=15;fontFamily=Verdana;" vertex="1" parent="ldAZ7kthjkq9QqOqfzTh-233">
          <mxGeometry width="30" height="30" as="geometry">
            <mxRectangle width="30" height="30" as="alternateBounds" />
          </mxGeometry>
        </mxCell>
        <mxCell id="ldAZ7kthjkq9QqOqfzTh-235" value="nome VARCHAR(255)" style="shape=partialRectangle;overflow=hidden;connectable=0;fillColor=none;top=0;left=0;bottom=0;right=0;align=left;spacingLeft=6;fontSize=15;fontFamily=Verdana;" vertex="1" parent="ldAZ7kthjkq9QqOqfzTh-233">
          <mxGeometry x="30" width="220" height="30" as="geometry">
            <mxRectangle width="220" height="30" as="alternateBounds" />
          </mxGeometry>
        </mxCell>
        <mxCell id="ldAZ7kthjkq9QqOqfzTh-236" value="" style="shape=partialRectangle;collapsible=0;dropTarget=0;pointerEvents=0;fillColor=none;points=[[0,0.5],[1,0.5]];portConstraint=eastwest;top=0;left=0;right=0;bottom=0;fontSize=15;fontFamily=Verdana;" vertex="1" parent="ldAZ7kthjkq9QqOqfzTh-226">
          <mxGeometry y="120" width="250" height="30" as="geometry" />
        </mxCell>
        <mxCell id="ldAZ7kthjkq9QqOqfzTh-237" value="" style="shape=partialRectangle;overflow=hidden;connectable=0;fillColor=none;top=0;left=0;bottom=0;right=0;fontSize=15;fontFamily=Verdana;" vertex="1" parent="ldAZ7kthjkq9QqOqfzTh-236">
          <mxGeometry width="30" height="30" as="geometry">
            <mxRectangle width="30" height="30" as="alternateBounds" />
          </mxGeometry>
        </mxCell>
        <mxCell id="ldAZ7kthjkq9QqOqfzTh-238" value="quantidade INT" style="shape=partialRectangle;overflow=hidden;connectable=0;fillColor=none;top=0;left=0;bottom=0;right=0;align=left;spacingLeft=6;fontSize=15;fontFamily=Verdana;" vertex="1" parent="ldAZ7kthjkq9QqOqfzTh-236">
          <mxGeometry x="30" width="220" height="30" as="geometry">
            <mxRectangle width="220" height="30" as="alternateBounds" />
          </mxGeometry>
        </mxCell>
        <mxCell id="ldAZ7kthjkq9QqOqfzTh-239" value="" style="shape=partialRectangle;collapsible=0;dropTarget=0;pointerEvents=0;fillColor=none;points=[[0,0.5],[1,0.5]];portConstraint=eastwest;top=0;left=0;right=0;bottom=0;fontSize=15;fontFamily=Verdana;" vertex="1" parent="ldAZ7kthjkq9QqOqfzTh-226">
          <mxGeometry y="150" width="250" height="30" as="geometry" />
        </mxCell>
        <mxCell id="ldAZ7kthjkq9QqOqfzTh-240" value="" style="shape=partialRectangle;overflow=hidden;connectable=0;fillColor=none;top=0;left=0;bottom=0;right=0;fontSize=15;fontFamily=Verdana;" vertex="1" parent="ldAZ7kthjkq9QqOqfzTh-239">
          <mxGeometry width="30" height="30" as="geometry">
            <mxRectangle width="30" height="30" as="alternateBounds" />
          </mxGeometry>
        </mxCell>
        <mxCell id="ldAZ7kthjkq9QqOqfzTh-241" value="tipo VARCHAR(50)" style="shape=partialRectangle;overflow=hidden;connectable=0;fillColor=none;top=0;left=0;bottom=0;right=0;align=left;spacingLeft=6;fontSize=15;fontFamily=Verdana;" vertex="1" parent="ldAZ7kthjkq9QqOqfzTh-239">
          <mxGeometry x="30" width="220" height="30" as="geometry">
            <mxRectangle width="220" height="30" as="alternateBounds" />
          </mxGeometry>
        </mxCell>
        <mxCell id="ldAZ7kthjkq9QqOqfzTh-242" value="" style="shape=partialRectangle;collapsible=0;dropTarget=0;pointerEvents=0;fillColor=none;points=[[0,0.5],[1,0.5]];portConstraint=eastwest;top=0;left=0;right=0;bottom=0;fontSize=15;" vertex="1" parent="ldAZ7kthjkq9QqOqfzTh-226">
          <mxGeometry y="180" width="250" height="30" as="geometry" />
        </mxCell>
        <mxCell id="ldAZ7kthjkq9QqOqfzTh-243" value="" style="shape=partialRectangle;overflow=hidden;connectable=0;fillColor=none;top=0;left=0;bottom=0;right=0;fontSize=15;" vertex="1" parent="ldAZ7kthjkq9QqOqfzTh-242">
          <mxGeometry width="30" height="30" as="geometry">
            <mxRectangle width="30" height="30" as="alternateBounds" />
          </mxGeometry>
        </mxCell>
        <mxCell id="ldAZ7kthjkq9QqOqfzTh-244" value="validade DATE" style="shape=partialRectangle;overflow=hidden;connectable=0;fillColor=none;top=0;left=0;bottom=0;right=0;align=left;spacingLeft=6;fontSize=15;fontFamily=Verdana;" vertex="1" parent="ldAZ7kthjkq9QqOqfzTh-242">
          <mxGeometry x="30" width="220" height="30" as="geometry">
            <mxRectangle width="220" height="30" as="alternateBounds" />
          </mxGeometry>
        </mxCell>
        <mxCell id="ldAZ7kthjkq9QqOqfzTh-245" value="" style="endArrow=none;html=1;rounded=0;exitX=0.999;exitY=0.082;exitDx=0;exitDy=0;exitPerimeter=0;entryX=-0.008;entryY=1.064;entryDx=0;entryDy=0;entryPerimeter=0;fontSize=15;strokeWidth=4;" edge="1" parent="1" source="ldAZ7kthjkq9QqOqfzTh-77" target="ldAZ7kthjkq9QqOqfzTh-30">
          <mxGeometry relative="1" as="geometry">
            <mxPoint x="1200" y="-1000" as="sourcePoint" />
            <mxPoint x="1360" y="-1000" as="targetPoint" />
          </mxGeometry>
        </mxCell>
        <mxCell id="ldAZ7kthjkq9QqOqfzTh-246" value="N" style="resizable=0;html=1;whiteSpace=wrap;align=left;verticalAlign=bottom;fontSize=16;" connectable="0" vertex="1" parent="ldAZ7kthjkq9QqOqfzTh-245">
          <mxGeometry x="-1" relative="1" as="geometry">
            <mxPoint y="-13" as="offset" />
          </mxGeometry>
        </mxCell>
        <mxCell id="ldAZ7kthjkq9QqOqfzTh-247" value="1" style="resizable=0;html=1;whiteSpace=wrap;align=right;verticalAlign=bottom;fontSize=16;" connectable="0" vertex="1" parent="ldAZ7kthjkq9QqOqfzTh-245">
          <mxGeometry x="1" relative="1" as="geometry" />
        </mxCell>
        <mxCell id="ldAZ7kthjkq9QqOqfzTh-248" value="" style="endArrow=none;html=1;rounded=0;exitX=1.011;exitY=-0.13;exitDx=0;exitDy=0;exitPerimeter=0;entryX=0;entryY=0.5;entryDx=0;entryDy=0;fontSize=15;strokeWidth=4;" edge="1" parent="1">
          <mxGeometry relative="1" as="geometry">
            <mxPoint x="912.6399999999999" y="-850" as="sourcePoint" />
            <mxPoint x="1370" y="-1010.0999999999999" as="targetPoint" />
            <Array as="points">
              <mxPoint x="1250" y="-875.1" />
            </Array>
          </mxGeometry>
        </mxCell>
        <mxCell id="ldAZ7kthjkq9QqOqfzTh-249" value="N" style="resizable=0;html=1;whiteSpace=wrap;align=left;verticalAlign=bottom;fontSize=16;" connectable="0" vertex="1" parent="ldAZ7kthjkq9QqOqfzTh-248">
          <mxGeometry x="-1" relative="1" as="geometry">
            <mxPoint y="23" as="offset" />
          </mxGeometry>
        </mxCell>
        <mxCell id="ldAZ7kthjkq9QqOqfzTh-250" value="1" style="resizable=0;html=1;whiteSpace=wrap;align=right;verticalAlign=bottom;fontSize=16;" connectable="0" vertex="1" parent="ldAZ7kthjkq9QqOqfzTh-248">
          <mxGeometry x="1" relative="1" as="geometry" />
        </mxCell>
        <mxCell id="ldAZ7kthjkq9QqOqfzTh-251" value="" style="endArrow=none;html=1;rounded=0;entryX=-0.008;entryY=1.064;entryDx=0;entryDy=0;entryPerimeter=0;fontSize=15;strokeWidth=4;exitX=1.011;exitY=0.113;exitDx=0;exitDy=0;exitPerimeter=0;" edge="1" parent="1" source="ldAZ7kthjkq9QqOqfzTh-1">
          <mxGeometry relative="1" as="geometry">
            <mxPoint x="1010" y="-1125" as="sourcePoint" />
            <mxPoint x="1370" y="-1084" as="targetPoint" />
            <Array as="points">
              <mxPoint x="1090" y="-1130" />
              <mxPoint x="1160" y="-1130" />
              <mxPoint x="1250" y="-1130" />
              <mxPoint x="1330" y="-1130" />
            </Array>
          </mxGeometry>
        </mxCell>
        <mxCell id="ldAZ7kthjkq9QqOqfzTh-252" value="N" style="resizable=0;html=1;whiteSpace=wrap;align=left;verticalAlign=bottom;fontSize=16;" connectable="0" vertex="1" parent="ldAZ7kthjkq9QqOqfzTh-251">
          <mxGeometry x="-1" relative="1" as="geometry">
            <mxPoint y="-1" as="offset" />
          </mxGeometry>
        </mxCell>
        <mxCell id="ldAZ7kthjkq9QqOqfzTh-253" value="1" style="resizable=0;html=1;whiteSpace=wrap;align=right;verticalAlign=bottom;fontSize=16;" connectable="0" vertex="1" parent="ldAZ7kthjkq9QqOqfzTh-251">
          <mxGeometry x="1" relative="1" as="geometry">
            <mxPoint x="-10" y="9" as="offset" />
          </mxGeometry>
        </mxCell>
        <mxCell id="ldAZ7kthjkq9QqOqfzTh-254" value="" style="endArrow=none;html=1;rounded=0;fontSize=15;strokeWidth=4;" edge="1" parent="1">
          <mxGeometry relative="1" as="geometry">
            <mxPoint x="1290" y="-1030" as="sourcePoint" />
            <mxPoint x="1370" y="-1030" as="targetPoint" />
          </mxGeometry>
        </mxCell>
        <mxCell id="ldAZ7kthjkq9QqOqfzTh-255" value="N" style="resizable=0;html=1;whiteSpace=wrap;align=left;verticalAlign=bottom;fontSize=16;" connectable="0" vertex="1" parent="ldAZ7kthjkq9QqOqfzTh-254">
          <mxGeometry x="-1" relative="1" as="geometry" />
        </mxCell>
        <mxCell id="ldAZ7kthjkq9QqOqfzTh-256" value="1" style="resizable=0;html=1;whiteSpace=wrap;align=right;verticalAlign=bottom;fontSize=16;" connectable="0" vertex="1" parent="ldAZ7kthjkq9QqOqfzTh-254">
          <mxGeometry x="1" relative="1" as="geometry" />
        </mxCell>
        <mxCell id="ldAZ7kthjkq9QqOqfzTh-257" value="" style="endArrow=none;html=1;rounded=0;exitX=0.358;exitY=0;exitDx=0;exitDy=0;exitPerimeter=0;entryX=0.056;entryY=1.024;entryDx=0;entryDy=0;entryPerimeter=0;strokeColor=light-dark(#000000,#D0BDFF);fontSize=15;strokeWidth=4;" edge="1" parent="1">
          <mxGeometry relative="1" as="geometry">
            <mxPoint x="1083.9999999999998" y="-850" as="sourcePoint" />
            <mxPoint x="1112.876" y="-929.28" as="targetPoint" />
          </mxGeometry>
        </mxCell>
        <mxCell id="ldAZ7kthjkq9QqOqfzTh-258" value="1" style="resizable=0;html=1;whiteSpace=wrap;align=left;verticalAlign=bottom;fontColor=light-dark(#000000,#D0BDFF);fontSize=16;" connectable="0" vertex="1" parent="ldAZ7kthjkq9QqOqfzTh-257">
          <mxGeometry x="-1" relative="1" as="geometry">
            <mxPoint x="-10" y="-10" as="offset" />
          </mxGeometry>
        </mxCell>
        <mxCell id="ldAZ7kthjkq9QqOqfzTh-259" value="N" style="resizable=0;html=1;whiteSpace=wrap;align=right;verticalAlign=bottom;fontColor=light-dark(#000000,#D0BDFF);fontSize=16;" connectable="0" vertex="1" parent="ldAZ7kthjkq9QqOqfzTh-257">
          <mxGeometry x="1" relative="1" as="geometry">
            <mxPoint x="-10" y="20" as="offset" />
          </mxGeometry>
        </mxCell>
        <mxCell id="ldAZ7kthjkq9QqOqfzTh-260" value="" style="endArrow=none;html=1;rounded=0;entryX=0;entryY=0.5;entryDx=0;entryDy=0;fontSize=15;strokeWidth=4;exitX=0.5;exitY=0;exitDx=0;exitDy=0;" edge="1" parent="1" source="ldAZ7kthjkq9QqOqfzTh-52" target="ldAZ7kthjkq9QqOqfzTh-49">
          <mxGeometry relative="1" as="geometry">
            <mxPoint x="790" y="-850" as="sourcePoint" />
            <mxPoint x="1270" y="-1020" as="targetPoint" />
            <Array as="points">
              <mxPoint x="820" y="-880" />
              <mxPoint x="860" y="-890" />
              <mxPoint x="940" y="-890" />
              <mxPoint x="1060" y="-890" />
            </Array>
          </mxGeometry>
        </mxCell>
        <mxCell id="ldAZ7kthjkq9QqOqfzTh-261" value="1" style="resizable=0;html=1;whiteSpace=wrap;align=left;verticalAlign=bottom;fontSize=16;" connectable="0" vertex="1" parent="ldAZ7kthjkq9QqOqfzTh-260">
          <mxGeometry x="-1" relative="1" as="geometry">
            <mxPoint x="-10" y="-7" as="offset" />
          </mxGeometry>
        </mxCell>
        <mxCell id="ldAZ7kthjkq9QqOqfzTh-262" value="N" style="resizable=0;html=1;whiteSpace=wrap;align=right;verticalAlign=bottom;fontSize=16;" connectable="0" vertex="1" parent="ldAZ7kthjkq9QqOqfzTh-260">
          <mxGeometry x="1" relative="1" as="geometry">
            <mxPoint x="-1" as="offset" />
          </mxGeometry>
        </mxCell>
        <mxCell id="ldAZ7kthjkq9QqOqfzTh-263" value="" style="endArrow=none;html=1;rounded=0;entryX=0.25;entryY=0;entryDx=0;entryDy=0;fontColor=light-dark(#000000,#D0BDFF);strokeColor=light-dark(#000000,#D0BDFF);fontSize=15;strokeWidth=4;exitX=1;exitY=0.5;exitDx=0;exitDy=0;" edge="1" parent="1" source="ldAZ7kthjkq9QqOqfzTh-17" target="ldAZ7kthjkq9QqOqfzTh-77">
          <mxGeometry relative="1" as="geometry">
            <mxPoint x="1010" y="-940" as="sourcePoint" />
            <mxPoint x="1170" y="-940" as="targetPoint" />
          </mxGeometry>
        </mxCell>
        <mxCell id="ldAZ7kthjkq9QqOqfzTh-264" value="1" style="resizable=0;html=1;whiteSpace=wrap;align=left;verticalAlign=bottom;fontColor=light-dark(#000000,#D0BDFF);fontSize=16;" connectable="0" vertex="1" parent="ldAZ7kthjkq9QqOqfzTh-263">
          <mxGeometry x="-1" relative="1" as="geometry" />
        </mxCell>
        <mxCell id="ldAZ7kthjkq9QqOqfzTh-265" value="N" style="resizable=0;html=1;whiteSpace=wrap;align=right;verticalAlign=bottom;fontColor=light-dark(#000000,#D0BDFF);fontSize=16;" connectable="0" vertex="1" parent="ldAZ7kthjkq9QqOqfzTh-263">
          <mxGeometry x="1" relative="1" as="geometry">
            <mxPoint x="-18" y="-10" as="offset" />
          </mxGeometry>
        </mxCell>
        <mxCell id="ldAZ7kthjkq9QqOqfzTh-266" value="" style="endArrow=none;html=1;rounded=0;fontColor=light-dark(#000000,#D0BDFF);strokeColor=light-dark(#000000,#FFFFFF);exitX=0;exitY=0.5;exitDx=0;exitDy=0;fontSize=15;strokeWidth=4;entryX=0.323;entryY=-0.009;entryDx=0;entryDy=0;entryPerimeter=0;" edge="1" parent="1" source="ldAZ7kthjkq9QqOqfzTh-11" target="ldAZ7kthjkq9QqOqfzTh-52">
          <mxGeometry relative="1" as="geometry">
            <mxPoint x="730" y="-940" as="sourcePoint" />
            <mxPoint x="760" y="-861" as="targetPoint" />
            <Array as="points">
              <mxPoint x="750" y="-930" />
            </Array>
          </mxGeometry>
        </mxCell>
        <mxCell id="ldAZ7kthjkq9QqOqfzTh-267" value="1" style="resizable=0;html=1;whiteSpace=wrap;align=left;verticalAlign=bottom;fontColor=light-dark(#000000,#FFFFFF);fontSize=16;" connectable="0" vertex="1" parent="ldAZ7kthjkq9QqOqfzTh-266">
          <mxGeometry x="-1" relative="1" as="geometry">
            <mxPoint x="-20" as="offset" />
          </mxGeometry>
        </mxCell>
        <mxCell id="ldAZ7kthjkq9QqOqfzTh-268" value="N" style="resizable=0;html=1;whiteSpace=wrap;align=right;verticalAlign=bottom;fontColor=light-dark(#000000,#FFFFFF);fontSize=16;" connectable="0" vertex="1" parent="ldAZ7kthjkq9QqOqfzTh-266">
          <mxGeometry x="1" relative="1" as="geometry">
            <mxPoint x="-8" y="-10" as="offset" />
          </mxGeometry>
        </mxCell>
        <mxCell id="ldAZ7kthjkq9QqOqfzTh-269" value="" style="endArrow=none;html=1;rounded=0;fontColor=light-dark(#000000,#D0BDFF);strokeColor=light-dark(#000000,#7EA6E0);entryX=0.423;entryY=-0.011;entryDx=0;entryDy=0;entryPerimeter=0;fontSize=15;strokeWidth=4;exitX=1;exitY=0.5;exitDx=0;exitDy=0;" edge="1" parent="1" source="N2QtF2M6v2fr4uQNJSqL-1" target="ldAZ7kthjkq9QqOqfzTh-191">
          <mxGeometry relative="1" as="geometry">
            <mxPoint x="1010" y="-970" as="sourcePoint" />
            <mxPoint x="1610" y="-530" as="targetPoint" />
            <Array as="points">
              <mxPoint x="1120" y="-890" />
              <mxPoint x="1300" y="-890" />
              <mxPoint x="1320" y="-610" />
              <mxPoint x="1480" y="-580" />
              <mxPoint x="1580" y="-560" />
            </Array>
          </mxGeometry>
        </mxCell>
        <mxCell id="ldAZ7kthjkq9QqOqfzTh-270" value="1" style="resizable=0;html=1;whiteSpace=wrap;align=left;verticalAlign=bottom;fontColor=light-dark(#000000,#7EA6E0);fontSize=16;" connectable="0" vertex="1" parent="ldAZ7kthjkq9QqOqfzTh-269">
          <mxGeometry x="-1" relative="1" as="geometry" />
        </mxCell>
        <mxCell id="ldAZ7kthjkq9QqOqfzTh-271" value="N" style="resizable=0;html=1;whiteSpace=wrap;align=right;verticalAlign=bottom;fontColor=light-dark(#000000,#7EA6E0);fontSize=16;" connectable="0" vertex="1" parent="ldAZ7kthjkq9QqOqfzTh-269">
          <mxGeometry x="1" relative="1" as="geometry">
            <mxPoint x="-8" y="-10" as="offset" />
          </mxGeometry>
        </mxCell>
        <mxCell id="ldAZ7kthjkq9QqOqfzTh-272" value="" style="endArrow=none;html=1;rounded=0;strokeColor=light-dark(#000000,#7EA6E0);fontSize=15;strokeWidth=4;" edge="1" parent="1">
          <mxGeometry relative="1" as="geometry">
            <mxPoint x="940" y="-911" as="sourcePoint" />
            <mxPoint x="1360" y="-185" as="targetPoint" />
            <Array as="points">
              <mxPoint x="940" y="-850" />
              <mxPoint x="960" y="-580" />
              <mxPoint x="1210" y="-570" />
              <mxPoint x="1230" y="-360" />
            </Array>
          </mxGeometry>
        </mxCell>
        <mxCell id="ldAZ7kthjkq9QqOqfzTh-273" value="1" style="resizable=0;html=1;whiteSpace=wrap;align=left;verticalAlign=bottom;fontColor=light-dark(#000000,#7EA6E0);fontSize=16;" connectable="0" vertex="1" parent="ldAZ7kthjkq9QqOqfzTh-272">
          <mxGeometry x="-1" relative="1" as="geometry">
            <mxPoint y="22" as="offset" />
          </mxGeometry>
        </mxCell>
        <mxCell id="ldAZ7kthjkq9QqOqfzTh-274" value="N" style="resizable=0;html=1;whiteSpace=wrap;align=right;verticalAlign=bottom;fontColor=light-dark(#000000,#7EA6E0);fontSize=16;" connectable="0" vertex="1" parent="ldAZ7kthjkq9QqOqfzTh-272">
          <mxGeometry x="1" relative="1" as="geometry">
            <mxPoint x="13" as="offset" />
          </mxGeometry>
        </mxCell>
        <mxCell id="ldAZ7kthjkq9QqOqfzTh-275" value="" style="endArrow=none;html=1;rounded=0;exitX=0.597;exitY=0.002;exitDx=0;exitDy=0;exitPerimeter=0;fontColor=light-dark(#000000,#67AB9F);strokeColor=light-dark(#000000,#67AB9F);fontSize=15;strokeWidth=4;entryX=0;entryY=0.5;entryDx=0;entryDy=0;" edge="1" parent="1" source="ldAZ7kthjkq9QqOqfzTh-52" target="ldAZ7kthjkq9QqOqfzTh-100">
          <mxGeometry relative="1" as="geometry">
            <mxPoint x="1200" y="-790" as="sourcePoint" />
            <mxPoint x="1360" y="-790" as="targetPoint" />
            <Array as="points">
              <mxPoint x="880" y="-870" />
              <mxPoint x="950" y="-870" />
              <mxPoint x="1020" y="-880" />
              <mxPoint x="1090" y="-880" />
              <mxPoint x="1240" y="-880" />
            </Array>
          </mxGeometry>
        </mxCell>
        <mxCell id="ldAZ7kthjkq9QqOqfzTh-276" value="1" style="resizable=0;html=1;whiteSpace=wrap;align=left;verticalAlign=bottom;fontColor=light-dark(#000000,#67AB9F);fontSize=16;" connectable="0" vertex="1" parent="ldAZ7kthjkq9QqOqfzTh-275">
          <mxGeometry x="-1" relative="1" as="geometry">
            <mxPoint x="17" y="-4" as="offset" />
          </mxGeometry>
        </mxCell>
        <mxCell id="ldAZ7kthjkq9QqOqfzTh-277" value="N" style="resizable=0;html=1;whiteSpace=wrap;align=right;verticalAlign=bottom;fontColor=light-dark(#000000,#67AB9F);fontSize=16;" connectable="0" vertex="1" parent="ldAZ7kthjkq9QqOqfzTh-275">
          <mxGeometry x="1" relative="1" as="geometry">
            <mxPoint x="-12" y="11" as="offset" />
          </mxGeometry>
        </mxCell>
        <mxCell id="ldAZ7kthjkq9QqOqfzTh-278" value="" style="endArrow=none;html=1;rounded=0;entryX=0;entryY=0.667;entryDx=0;entryDy=0;entryPerimeter=0;fontSize=15;strokeWidth=4;" edge="1" parent="1" target="ldAZ7kthjkq9QqOqfzTh-106">
          <mxGeometry relative="1" as="geometry">
            <mxPoint x="1240" y="-740" as="sourcePoint" />
            <mxPoint x="1400" y="-740" as="targetPoint" />
          </mxGeometry>
        </mxCell>
        <mxCell id="ldAZ7kthjkq9QqOqfzTh-279" value="1" style="resizable=0;html=1;whiteSpace=wrap;align=left;verticalAlign=bottom;fontSize=16;" connectable="0" vertex="1" parent="ldAZ7kthjkq9QqOqfzTh-278">
          <mxGeometry x="-1" relative="1" as="geometry">
            <mxPoint x="3" as="offset" />
          </mxGeometry>
        </mxCell>
        <mxCell id="ldAZ7kthjkq9QqOqfzTh-280" value="N" style="resizable=0;html=1;whiteSpace=wrap;align=right;verticalAlign=bottom;fontSize=16;" connectable="0" vertex="1" parent="ldAZ7kthjkq9QqOqfzTh-278">
          <mxGeometry x="1" relative="1" as="geometry">
            <mxPoint x="-7" as="offset" />
          </mxGeometry>
        </mxCell>
        <mxCell id="ldAZ7kthjkq9QqOqfzTh-281" value="" style="endArrow=none;html=1;rounded=0;entryX=0.3;entryY=1;entryDx=0;entryDy=0;entryPerimeter=0;fontSize=15;strokeWidth=4;" edge="1" parent="1" target="ldAZ7kthjkq9QqOqfzTh-115">
          <mxGeometry relative="1" as="geometry">
            <mxPoint x="790" y="-521" as="sourcePoint" />
            <mxPoint x="910" y="-550" as="targetPoint" />
            <Array as="points">
              <mxPoint x="870" y="-531" />
              <mxPoint x="990" y="-551" />
              <mxPoint x="1230" y="-590" />
            </Array>
          </mxGeometry>
        </mxCell>
        <mxCell id="ldAZ7kthjkq9QqOqfzTh-282" value="1" style="resizable=0;html=1;whiteSpace=wrap;align=left;verticalAlign=bottom;fontSize=16;" connectable="0" vertex="1" parent="ldAZ7kthjkq9QqOqfzTh-281">
          <mxGeometry x="-1" relative="1" as="geometry" />
        </mxCell>
        <mxCell id="ldAZ7kthjkq9QqOqfzTh-283" value="1" style="resizable=0;html=1;whiteSpace=wrap;align=right;verticalAlign=bottom;fontSize=16;" connectable="0" vertex="1" parent="ldAZ7kthjkq9QqOqfzTh-281">
          <mxGeometry x="1" relative="1" as="geometry">
            <mxPoint x="8" y="21" as="offset" />
          </mxGeometry>
        </mxCell>
        <mxCell id="ldAZ7kthjkq9QqOqfzTh-284" value="" style="endArrow=none;html=1;rounded=0;entryX=0.33;entryY=1.097;entryDx=0;entryDy=0;entryPerimeter=0;fontSize=15;strokeWidth=4;exitX=0.575;exitY=0.961;exitDx=0;exitDy=0;exitPerimeter=0;" edge="1" parent="1" source="ldAZ7kthjkq9QqOqfzTh-150" target="ldAZ7kthjkq9QqOqfzTh-166">
          <mxGeometry relative="1" as="geometry">
            <mxPoint x="831" y="-350" as="sourcePoint" />
            <mxPoint x="980" y="-310" as="targetPoint" />
            <Array as="points">
              <mxPoint x="870" y="-310" />
              <mxPoint x="950" y="-310" />
            </Array>
          </mxGeometry>
        </mxCell>
        <mxCell id="ldAZ7kthjkq9QqOqfzTh-285" value="1" style="resizable=0;html=1;whiteSpace=wrap;align=left;verticalAlign=bottom;fontSize=16;" connectable="0" vertex="1" parent="ldAZ7kthjkq9QqOqfzTh-284">
          <mxGeometry x="-1" relative="1" as="geometry">
            <mxPoint y="25" as="offset" />
          </mxGeometry>
        </mxCell>
        <mxCell id="ldAZ7kthjkq9QqOqfzTh-286" value="N" style="resizable=0;html=1;whiteSpace=wrap;align=right;verticalAlign=bottom;fontSize=16;" connectable="0" vertex="1" parent="ldAZ7kthjkq9QqOqfzTh-284">
          <mxGeometry x="1" relative="1" as="geometry">
            <mxPoint y="27" as="offset" />
          </mxGeometry>
        </mxCell>
        <mxCell id="ldAZ7kthjkq9QqOqfzTh-287" value="" style="endArrow=none;html=1;rounded=0;exitX=1;exitY=0.5;exitDx=0;exitDy=0;strokeColor=light-dark(#000000,#67AB9F);fontSize=15;strokeWidth=4;" edge="1" parent="1" source="N2QtF2M6v2fr4uQNJSqL-4" target="ldAZ7kthjkq9QqOqfzTh-134">
          <mxGeometry relative="1" as="geometry">
            <mxPoint x="922.4" y="-629.99" as="sourcePoint" />
            <mxPoint x="1660" y="-621" as="targetPoint" />
            <Array as="points">
              <mxPoint x="970" y="-586" />
              <mxPoint x="1020" y="-580" />
              <mxPoint x="1100" y="-580" />
              <mxPoint x="1270" y="-590" />
              <mxPoint x="1470" y="-611" />
            </Array>
          </mxGeometry>
        </mxCell>
        <mxCell id="ldAZ7kthjkq9QqOqfzTh-288" value="1" style="resizable=0;html=1;whiteSpace=wrap;align=left;verticalAlign=bottom;fontColor=light-dark(#000000,#67AB9F);fontSize=16;" connectable="0" vertex="1" parent="ldAZ7kthjkq9QqOqfzTh-287">
          <mxGeometry x="-1" relative="1" as="geometry" />
        </mxCell>
        <mxCell id="ldAZ7kthjkq9QqOqfzTh-289" value="N" style="resizable=0;html=1;whiteSpace=wrap;align=right;verticalAlign=bottom;fontColor=light-dark(#000000,#67AB9F);fontSize=16;" connectable="0" vertex="1" parent="ldAZ7kthjkq9QqOqfzTh-287">
          <mxGeometry x="1" relative="1" as="geometry">
            <mxPoint x="8" y="22" as="offset" />
          </mxGeometry>
        </mxCell>
        <mxCell id="ldAZ7kthjkq9QqOqfzTh-290" value="" style="endArrow=none;html=1;rounded=0;exitX=0.998;exitY=0.665;exitDx=0;exitDy=0;exitPerimeter=0;strokeColor=light-dark(#000000,#D0BDFF);fontSize=15;strokeWidth=4;entryX=0.915;entryY=0.994;entryDx=0;entryDy=0;entryPerimeter=0;" edge="1" parent="1" source="ldAZ7kthjkq9QqOqfzTh-93" target="ldAZ7kthjkq9QqOqfzTh-134">
          <mxGeometry relative="1" as="geometry">
            <mxPoint x="1580" y="-610.57" as="sourcePoint" />
            <mxPoint x="1743" y="-639" as="targetPoint" />
            <Array as="points">
              <mxPoint x="1360" y="-620" />
              <mxPoint x="1500" y="-601" />
              <mxPoint x="1630" y="-600" />
            </Array>
          </mxGeometry>
        </mxCell>
        <mxCell id="ldAZ7kthjkq9QqOqfzTh-291" value="1" style="resizable=0;html=1;whiteSpace=wrap;align=left;verticalAlign=bottom;fontColor=light-dark(#000000,#D0BDFF);fontSize=16;" connectable="0" vertex="1" parent="ldAZ7kthjkq9QqOqfzTh-290">
          <mxGeometry x="-1" relative="1" as="geometry" />
        </mxCell>
        <mxCell id="ldAZ7kthjkq9QqOqfzTh-292" value="N" style="resizable=0;html=1;whiteSpace=wrap;align=right;verticalAlign=bottom;fontColor=light-dark(#000000,#D0BDFF);fontSize=16;" connectable="0" vertex="1" parent="ldAZ7kthjkq9QqOqfzTh-290">
          <mxGeometry x="1" relative="1" as="geometry">
            <mxPoint x="4" y="22" as="offset" />
          </mxGeometry>
        </mxCell>
        <mxCell id="ldAZ7kthjkq9QqOqfzTh-293" value="" style="endArrow=none;html=1;rounded=0;exitX=0.5;exitY=0;exitDx=0;exitDy=0;entryX=0.157;entryY=-0.004;entryDx=0;entryDy=0;entryPerimeter=0;fontSize=15;strokeWidth=4;" edge="1" parent="1" source="ldAZ7kthjkq9QqOqfzTh-169" target="ldAZ7kthjkq9QqOqfzTh-191">
          <mxGeometry relative="1" as="geometry">
            <mxPoint x="1370" y="-540" as="sourcePoint" />
            <mxPoint x="1530" y="-540" as="targetPoint" />
            <Array as="points">
              <mxPoint x="1406" y="-560" />
              <mxPoint x="1450" y="-560" />
              <mxPoint x="1490" y="-550" />
            </Array>
          </mxGeometry>
        </mxCell>
        <mxCell id="ldAZ7kthjkq9QqOqfzTh-294" value="1" style="resizable=0;html=1;whiteSpace=wrap;align=left;verticalAlign=bottom;fontSize=16;" connectable="0" vertex="1" parent="ldAZ7kthjkq9QqOqfzTh-293">
          <mxGeometry x="-1" relative="1" as="geometry">
            <mxPoint x="4" as="offset" />
          </mxGeometry>
        </mxCell>
        <mxCell id="ldAZ7kthjkq9QqOqfzTh-295" value="1" style="resizable=0;html=1;whiteSpace=wrap;align=right;verticalAlign=bottom;fontSize=16;" connectable="0" vertex="1" parent="ldAZ7kthjkq9QqOqfzTh-293">
          <mxGeometry x="1" relative="1" as="geometry">
            <mxPoint x="1" as="offset" />
          </mxGeometry>
        </mxCell>
        <mxCell id="ldAZ7kthjkq9QqOqfzTh-299" value="" style="endArrow=none;html=1;rounded=0;exitX=1;exitY=0.5;exitDx=0;exitDy=0;strokeColor=light-dark(#000000,#EA6B66);fontSize=15;strokeWidth=4;" edge="1" parent="1" source="ldAZ7kthjkq9QqOqfzTh-96">
          <mxGeometry relative="1" as="geometry">
            <mxPoint x="1210" y="-530.69" as="sourcePoint" />
            <mxPoint x="1370" y="-530.69" as="targetPoint" />
          </mxGeometry>
        </mxCell>
        <mxCell id="ldAZ7kthjkq9QqOqfzTh-300" value="1" style="resizable=0;html=1;whiteSpace=wrap;align=left;verticalAlign=bottom;fontColor=light-dark(#000000,#EA6B66);fontSize=16;" connectable="0" vertex="1" parent="ldAZ7kthjkq9QqOqfzTh-299">
          <mxGeometry x="-1" relative="1" as="geometry" />
        </mxCell>
        <mxCell id="ldAZ7kthjkq9QqOqfzTh-301" value="1" style="resizable=0;html=1;whiteSpace=wrap;align=right;verticalAlign=bottom;fontColor=light-dark(#000000,#EA6B66);fontSize=16;" connectable="0" vertex="1" parent="ldAZ7kthjkq9QqOqfzTh-299">
          <mxGeometry x="1" relative="1" as="geometry" />
        </mxCell>
        <mxCell id="ldAZ7kthjkq9QqOqfzTh-302" value="" style="endArrow=none;html=1;rounded=0;strokeColor=light-dark(#000000,#D0BDFF);strokeWidth=4;exitX=0.558;exitY=1.003;exitDx=0;exitDy=0;exitPerimeter=0;" edge="1" parent="1" source="ldAZ7kthjkq9QqOqfzTh-17">
          <mxGeometry relative="1" as="geometry">
            <mxPoint x="908.4399999999999" y="-928.71" as="sourcePoint" />
            <mxPoint x="960" y="-210" as="targetPoint" />
            <Array as="points">
              <mxPoint x="940" y="-840" />
              <mxPoint x="929" y="-740" />
              <mxPoint x="929" y="-560" />
              <mxPoint x="919" y="-380" />
            </Array>
          </mxGeometry>
        </mxCell>
        <mxCell id="ldAZ7kthjkq9QqOqfzTh-303" value="1" style="resizable=0;html=1;whiteSpace=wrap;align=left;verticalAlign=bottom;fontColor=light-dark(#000000,#D0BDFF);fontSize=16;" connectable="0" vertex="1" parent="ldAZ7kthjkq9QqOqfzTh-302">
          <mxGeometry x="-1" relative="1" as="geometry">
            <mxPoint x="9" y="19" as="offset" />
          </mxGeometry>
        </mxCell>
        <mxCell id="ldAZ7kthjkq9QqOqfzTh-304" value="N" style="resizable=0;html=1;whiteSpace=wrap;align=right;verticalAlign=bottom;fontColor=light-dark(#000000,#D0BDFF);fontSize=16;" connectable="0" vertex="1" parent="ldAZ7kthjkq9QqOqfzTh-302">
          <mxGeometry x="1" relative="1" as="geometry">
            <mxPoint x="20" as="offset" />
          </mxGeometry>
        </mxCell>
        <mxCell id="ldAZ7kthjkq9QqOqfzTh-305" value="" style="endArrow=none;html=1;rounded=0;fontSize=15;strokeWidth=4;entryX=0.549;entryY=1.01;entryDx=0;entryDy=0;entryPerimeter=0;exitX=0.392;exitY=1.009;exitDx=0;exitDy=0;exitPerimeter=0;" edge="1" parent="1" source="ldAZ7kthjkq9QqOqfzTh-150" target="ldAZ7kthjkq9QqOqfzTh-188">
          <mxGeometry relative="1" as="geometry">
            <mxPoint x="770" y="-350" as="sourcePoint" />
            <mxPoint x="1390" y="-260" as="targetPoint" />
            <Array as="points">
              <mxPoint x="809" y="-310" />
              <mxPoint x="890" y="-290" />
              <mxPoint x="1140" y="-270" />
            </Array>
          </mxGeometry>
        </mxCell>
        <mxCell id="ldAZ7kthjkq9QqOqfzTh-306" value="1" style="resizable=0;html=1;whiteSpace=wrap;align=left;verticalAlign=bottom;fontSize=16;" connectable="0" vertex="1" parent="ldAZ7kthjkq9QqOqfzTh-305">
          <mxGeometry x="-1" relative="1" as="geometry">
            <mxPoint y="25" as="offset" />
          </mxGeometry>
        </mxCell>
        <mxCell id="ldAZ7kthjkq9QqOqfzTh-307" value="N" style="resizable=0;html=1;whiteSpace=wrap;align=right;verticalAlign=bottom;fontSize=16;" connectable="0" vertex="1" parent="ldAZ7kthjkq9QqOqfzTh-305">
          <mxGeometry x="1" relative="1" as="geometry">
            <mxPoint y="27" as="offset" />
          </mxGeometry>
        </mxCell>
        <mxCell id="N2QtF2M6v2fr4uQNJSqL-10" value="" style="endArrow=none;html=1;rounded=0;exitX=1;exitY=0.5;exitDx=0;exitDy=0;strokeColor=light-dark(#000000,#EA6B66);fontSize=15;strokeWidth=4;" edge="1" parent="1">
          <mxGeometry relative="1" as="geometry">
            <mxPoint x="910" y="-571" as="sourcePoint" />
            <mxPoint x="1310" y="-531" as="targetPoint" />
          </mxGeometry>
        </mxCell>
        <mxCell id="N2QtF2M6v2fr4uQNJSqL-11" value="1" style="resizable=0;html=1;whiteSpace=wrap;align=left;verticalAlign=bottom;fontColor=light-dark(#000000,#EA6B66);fontSize=16;" connectable="0" vertex="1" parent="N2QtF2M6v2fr4uQNJSqL-10">
          <mxGeometry x="-1" relative="1" as="geometry" />
        </mxCell>
        <mxCell id="N2QtF2M6v2fr4uQNJSqL-12" value="1" style="resizable=0;html=1;whiteSpace=wrap;align=right;verticalAlign=bottom;fontColor=light-dark(#000000,#EA6B66);fontSize=16;" connectable="0" vertex="1" parent="N2QtF2M6v2fr4uQNJSqL-10">
          <mxGeometry x="1" relative="1" as="geometry" />
        </mxCell>
      </root>
    </mxGraphModel>
  </diagram>
</mxfile>
